<svg width="1600" height="1200" viewBox="0 0 1600 1200" fill="none" xmlns="http://www.w3.org/2000/svg">
<rect width="1600" height="1200" fill="#E5E5E5"/>
<path d="M240 859C245.5 898 250 937.1 253.7 976.3C253.9 978.2 256.9 978.2 256.7 976.3C253 936.8 248.4 897.5 242.9 858.2C242.6 856.3 239.8 857.1 240 859Z" fill="#E8E8E8"/>
<path d="M253.8 977.9C286 993.9 324.3 994.2 356.8 979C358.5 978.2 357 975.6 355.3 976.4C323.8 991.2 286.4 990.7 255.3 975.3C253.6 974.4 252.1 977 253.8 977.9Z" fill="#E8E8E8"/>
<path d="M359 861.2C358.9 900.1 358.1 938.9 356.5 977.7C356.4 979.6 359.4 979.6 359.5 977.7C361.1 938.9 361.9 900 362 861.2C362 859.3 359 859.3 359 861.2Z" fill="#E8E8E8"/>
<path d="M240.8 859.5C279.8 871.3 320.9 867.1 360.7 862.6C362.6 862.4 362.6 859.4 360.7 859.6C321.1 864 280.4 868.3 241.6 856.6C239.8 856 239 858.9 240.8 859.5Z" fill="#E8E8E8"/>
<path d="M255.6 963C259 956.2 266.7 965.8 269.4 968.2C271.9 970.4 274.8 971.7 278.2 971.5C286.6 971.1 293.7 962.8 302.3 964.9C310.7 967 315.1 975.6 324.7 974.7C335.5 973.7 346.5 960.9 357.5 967.3C359.2 968.3 360.7 965.7 359 964.7C348.5 958.6 338.8 967.4 329 970.7C321.5 973.2 316.6 970.3 310.7 966.1C307.1 963.6 303.4 961.4 298.8 961.7C288.3 962.3 279.5 974 269.9 964.6C267.1 961.8 264.8 958.8 260.6 958.1C257.4 957.6 254.5 958.6 253 961.5C252.1 963.2 254.7 964.7 255.6 963Z" fill="#E8E8E8"/>
<path d="M252.8 945.7C287.3 955.1 323.8 954.5 357.9 943.7C359.7 943.1 359 940.2 357.1 940.8C323.5 951.4 287.5 952 253.6 942.8C251.7 942.3 250.9 945.1 252.8 945.7Z" fill="#E8E8E8"/>
<path d="M247.9 910.9C284.6 919.9 323.2 919.1 359.4 908.4C361.2 907.9 360.5 905 358.6 905.5C322.8 916.1 284.9 916.9 248.7 908C246.8 907.5 246 910.4 247.9 910.9Z" fill="#E8E8E8"/>
<path d="M246.2 884.9C252.2 880.4 258.1 887 262.7 890.3C266.3 892.9 270.2 894.2 274.6 893.7C283.7 892.5 292.4 883.1 301.9 885.5C307.1 886.8 310.4 891.9 315.7 892.8C319.7 893.5 323.4 891.6 326.6 889.5C332 886.1 336.4 883.4 343.1 883.9C349.2 884.3 354.9 885.8 361.1 884.8C363 884.5 362.2 881.6 360.3 881.9C353.4 882.9 346.7 880.5 339.8 880.8C334.8 881 330.9 883 326.8 885.8C324.5 887.3 322.2 889.1 319.5 889.7C315.4 890.7 312.3 888.3 309.2 886.1C305.6 883.6 302 881.8 297.4 882.3C288.1 883.2 279.6 892.7 270 890.7C261.7 889 254.1 875.2 244.5 882.3C243.2 883.5 244.7 886.1 246.2 884.9Z" fill="#E8E8E8"/>
<path d="M267.7 861.6C263.1 856.9 248.8 841.5 256.7 834.9C257.2 834.5 257.3 833.6 256.9 833.1C250.7 824.2 243.9 814.7 243.2 803.5C242.9 798.6 245 794.7 245.4 790.1C245.8 785.7 243.5 780.8 242.4 776.6C237 754.8 233.2 731 235.3 708.5C235.8 703 236.8 697.3 239 692.2C243.2 682.2 251.7 691.4 255.3 696.4C261.3 704.8 265.4 714.3 268.9 724C276.4 744.9 282.4 766.4 287.3 788.1C293 813.3 296.9 838.9 299.1 864.7C299.3 866.6 302.3 866.6 302.1 864.7C299.9 839.3 296.1 814.1 290.6 789.2C285.2 764.5 278.5 739.5 269.1 716.1C265.3 706.7 260.6 696.2 253.1 689.1C247.5 683.7 239.9 682.7 236.5 690.7C232.2 700.7 231.8 712.1 232.1 722.9C232.5 735.8 233.9 748.8 236.2 761.5C237.5 768.5 239 775.4 240.8 782.2C241.9 786.3 242.7 789.3 241.5 793.3C240.6 796.1 240.2 799 240.2 802C240.2 814.4 247.5 825.1 254.3 834.8C254.4 834.2 254.5 833.6 254.5 833C244.7 841.3 259.6 858.1 265.5 864C267 865 269.1 862.9 267.7 861.6Z" fill="#E8E8E8"/>
<path d="M291.2 783.5C292.1 774.7 293 765.8 296.2 757.5C298.1 752.6 300.8 748.6 304.1 744.6C306.4 741.8 308 738.9 310.1 736C316.2 727.4 322 736.9 323.1 743.1C324 748.6 324.4 754.2 324.6 759.8C325 770.6 324.4 781.5 322.8 792.2C322.6 793.8 324.6 794.9 325.5 793.4C327.8 789.7 334.9 781.9 338.4 790.2C339.5 792.8 338.8 796.6 338.7 799.3C338.3 807 337.6 814.6 336.5 822.2C334.5 836.1 331.2 849.9 326.8 863.3C326.2 865.1 329.1 865.9 329.7 864.1C336 844.6 340 824.4 341.4 804C341.8 798.3 344 787.6 337.2 784.4C331 781.5 325.8 787.2 322.8 791.9C323.7 792.3 324.6 792.7 325.5 793.1C327.5 779.5 328.1 765.9 326.9 752.2C326.2 744.7 325.5 728.6 314.1 729.7C309.9 730.1 307.8 733.8 305.8 737C302.7 742.2 298.2 746.2 295.4 751.6C290.2 761.5 289.1 772.8 288 783.7C288 785.4 291 785.4 291.2 783.5Z" fill="#E8E8E8"/>
<path d="M241.1 690.2C262.6 746.6 274.2 805.9 285.6 864.9C286 866.8 288.9 866 288.5 864.1C277.1 805.1 265.5 745.7 244 689.4C243.3 687.6 240.4 688.4 241.1 690.2Z" fill="#E8E8E8"/>
<path d="M239.7 774.7C254.3 783.2 266 795.4 273.9 810.3C274.8 812 277.4 810.5 276.5 808.8C268.4 793.5 256.2 780.8 241.3 772.1C239.5 771.1 238 773.7 239.7 774.7Z" fill="#E8E8E8"/>
<path d="M267 716.9C265.2 733.6 263.6 750.4 265.6 767.1C265.8 769 268.8 769 268.6 767.1C266.6 750.3 268.2 733.6 270 716.9C270.2 715 267.2 715 267 716.9Z" fill="#E8E8E8"/>
<path d="M314.9 733C312.6 775 310.4 817.1 308.1 859.1C308 861 311 861 311.1 859.1C313.4 817.1 315.6 775 317.9 733C318 731 315 731 314.9 733Z" fill="#E8E8E8"/>
<path d="M288.5 781.8C293.7 798.7 300.2 815.1 308.1 830.9C309 832.6 311.6 831.1 310.7 829.4C302.9 813.8 296.5 797.6 291.4 781C290.8 779.2 287.9 779.9 288.5 781.8Z" fill="#E8E8E8"/>
<path d="M311.4 845.6C322.7 839.2 331.9 830.1 338.5 818.9C339.5 817.2 336.9 815.7 335.9 817.4C329.6 828.2 320.7 836.9 309.9 843C308.2 844 309.7 846.5 311.4 845.6Z" fill="#E8E8E8"/>
<path d="M241.9 860.1C247.9 859.7 257.3 857.6 261.7 863C262.3 862.2 262.9 861.4 263.5 860.6C259.6 858.5 255.5 857.1 251.1 856.3C250.8 857.3 250.6 858.2 250.3 859.2C255.1 860 259.8 861.1 264.5 862.5C266.4 863.1 267.1 860.2 265.3 859.6C260.6 858.2 255.9 857.1 251.1 856.3C249.2 856 248.4 858.8 250.3 859.2C254.5 860 258.2 861.3 262 863.2C263.6 864 264.9 862.1 263.8 860.8C258.7 854.5 248.9 856.6 241.9 857C240 857.2 240 860.2 241.9 860.1Z" fill="#E8E8E8"/>
<path d="M331.4 861.2C331.2 860.2 343.5 860.8 344.2 860.9C348.4 861.1 352.7 861.3 356.9 861.4C356.9 860.4 356.9 859.4 356.9 858.4C349 858.8 341.1 859.2 333.2 859.5C331.3 859.6 331.3 862.4 333.2 862.5C337.6 862.7 342 862.8 346.4 862.7C348.3 862.7 348.3 859.7 346.4 859.7C342 859.8 337.6 859.8 333.2 859.5C333.2 860.5 333.2 861.5 333.2 862.5C341.1 862.1 349 861.7 356.9 861.4C358.8 861.3 358.8 858.5 356.9 858.4C349.2 858.1 341.2 857.1 333.5 857.4C330.6 857.5 327.8 858.5 328.6 862C328.9 863.9 331.8 863.1 331.4 861.2Z" fill="#E8E8E8"/>
<path d="M452.2 1115C467.2 1096.2 482.1 1077.5 497.1 1058.7C510.8 1041.6 524.5 1024.4 540.5 1009.4C541.9 1008.1 539.8 1006 538.4 1007.3C522.4 1022.4 508.7 1039.5 495 1056.6C480 1075.4 465.1 1094.1 450.1 1112.9C448.9 1114.4 451 1116.5 452.2 1115Z" fill="#E8E8E8"/>
<path d="M538.4 1008.8C665.5 1008.8 792.5 1008.8 919.6 1008.8C955.5 1008.8 991.4 1008.8 1027.4 1008.8C1029.3 1008.8 1029.3 1005.8 1027.4 1005.8C900.3 1005.8 773.3 1005.8 646.2 1005.8C610.3 1005.8 574.4 1005.8 538.4 1005.8C536.4 1005.8 536.4 1008.8 538.4 1008.8Z" fill="#E8E8E8"/>
<path d="M1026.9 1009.1C1062.6 1045.8 1096.2 1084.4 1127.4 1124.9C1128.6 1126.4 1131.2 1124.9 1130 1123.4C1098.6 1082.7 1064.9 1043.8 1029 1007C1027.7 1005.6 1025.5 1007.7 1026.9 1009.1Z" fill="#E8E8E8"/>
<path d="M288.2 1020.2C334.7 1020.2 381.1 1020.2 427.6 1020.2C429.5 1020.2 429.5 1017.2 427.6 1017.2C381.1 1017.2 334.7 1017.2 288.2 1017.2C286.3 1017.2 286.3 1020.2 288.2 1020.2Z" fill="#E8E8E8"/>
<path d="M548.6 959.7C633.2 959.7 717.8 959.7 802.4 959.7C886.7 959.7 971 959.7 1055.2 959.7C1102.8 959.7 1150.5 959.7 1198.1 959.7C1200 959.7 1200 956.7 1198.1 956.7C1113.5 956.7 1028.9 956.7 944.3 956.7C860 956.7 775.7 956.7 691.5 956.7C643.9 956.7 596.2 956.7 548.6 956.7C546.7 956.7 546.7 959.7 548.6 959.7Z" fill="#E8E8E8"/>
<path d="M1263.9 961C1334.5 961 1405 961 1475.6 961C1477.5 961 1477.5 958 1475.6 958C1405 958 1334.5 958 1263.9 958C1262 958 1262 961 1263.9 961Z" fill="#E8E8E8"/>
<path d="M1085.1 1004.4C1123.7 1004.4 1162.2 1004.4 1200.8 1004.4C1202.7 1004.4 1202.7 1001.4 1200.8 1001.4C1162.2 1001.4 1123.7 1001.4 1085.1 1001.4C1083.2 1001.4 1083.2 1004.4 1085.1 1004.4Z" fill="#E8E8E8"/>
<path d="M1257.3 1016.2C1286.7 1016.2 1316 1016.2 1345.4 1016.2C1347.3 1016.2 1347.3 1013.2 1345.4 1013.2C1316 1013.2 1286.7 1013.2 1257.3 1013.2C1255.4 1013.2 1255.4 1016.2 1257.3 1016.2Z" fill="#E8E8E8"/>
<path d="M444.5 957.7C480.8 957.7 517.1 957.7 553.4 957.7C555.3 957.7 555.3 954.7 553.4 954.7C517.1 954.7 480.8 954.7 444.5 954.7C442.5 954.7 442.5 957.7 444.5 957.7Z" fill="#161616"/>
<path d="M546.9 970.7C617.5 970.7 688 970.7 758.6 970.7C778.8 970.7 799 970.7 819.2 970.7C821.1 970.7 821.1 967.7 819.2 967.7C748.6 967.7 678.1 967.7 607.5 967.7C587.3 967.7 567.1 967.7 546.9 967.7C545 967.7 545 970.7 546.9 970.7Z" fill="#161616"/>
<path d="M758.3 957.7C853.9 957.7 949.4 957.7 1045 957.7C1072.2 957.7 1099.4 957.7 1126.6 957.7C1128.5 957.7 1128.5 954.7 1126.6 954.7C1031 954.7 935.5 954.7 839.9 954.7C812.7 954.7 785.5 954.7 758.3 954.7C756.4 954.7 756.4 957.7 758.3 957.7Z" fill="#161616"/>
<path d="M1126.6 977.2C1193.8 977.2 1260.9 977.2 1328.1 977.2C1347.4 977.2 1366.7 977.2 1386 977.2C1387.9 977.2 1387.9 974.2 1386 974.2C1318.8 974.2 1251.7 974.2 1184.5 974.2C1165.2 974.2 1145.9 974.2 1126.6 974.2C1124.7 974.2 1124.7 977.2 1126.6 977.2Z" fill="#161616"/>
<path d="M273.3 1079.6C300.5 1079.6 327.8 1079.6 355 1079.6C356.9 1079.6 356.9 1076.6 355 1076.6C327.8 1076.6 300.5 1076.6 273.3 1076.6C271.3 1076.6 271.3 1079.6 273.3 1079.6Z" fill="#161616"/>
<path d="M968.4 1061.5C1007.7 1061.5 1047.1 1061.5 1086.4 1061.5C1088.3 1061.5 1088.3 1058.5 1086.4 1058.5C1047.1 1058.5 1007.7 1058.5 968.4 1058.5C966.4 1058.5 966.4 1061.5 968.4 1061.5Z" fill="#161616"/>
<path d="M1279.6 1065.3C1315 1065.3 1350.5 1065.3 1385.9 1065.3C1387.8 1065.3 1387.8 1062.3 1385.9 1062.3C1350.5 1062.3 1315 1062.3 1279.6 1062.3C1277.7 1062.3 1277.7 1065.3 1279.6 1065.3Z" fill="#161616"/>
<path d="M386.3 701.5C386.3 828.5 386.3 955.5 386.3 1082.4C395.1 1081.5 403.8 1080.6 412.6 1079.6C412.6 952.6 412.6 825.6 412.6 698.7C403.9 699.6 395.1 700.5 386.3 701.5Z" fill="white"/>
<path d="M1146.8 705.6C1146.6 830.3 1146.3 954.9 1146.1 1079.6C1154.6 1079.6 1163.2 1079.6 1171.7 1079.6C1171.7 953.8 1171.7 827.9 1171.7 702.1C1163.5 703.3 1155.2 704.5 1146.8 705.6Z" fill="white"/>
<path d="M515.9 955.6C514.9 901.9 514.6 846.9 515.2 790.8C515.6 754.7 516.3 719.2 517.3 684.1C506.7 683.9 496.1 683.6 485.4 683.4C485.2 773.7 484.9 863.9 484.7 954.2C495.1 954.7 505.5 955.2 515.9 955.6Z" fill="black"/>
<path d="M1045 689.7C1045.2 777.9 1045.5 866.1 1045.7 954.3C1055.2 954.1 1064.6 953.8 1074.1 953.6C1074.8 864 1075.5 774.4 1076.2 684.9C1065.8 686.4 1055.4 688.1 1045 689.7Z" fill="black"/>
<path d="M343.4 693.8C343.2 701.2 342.9 708.6 342.7 716C629.4 716.5 916.2 716.9 1202.9 717.4C1202.2 709.6 1201.5 701.7 1200.8 693.9C1107.9 689.8 1013 687 916.1 685.6C717.5 682.6 526.4 685.8 343.4 693.8Z" fill="black"/>
<path d="M343.4 693.1C629.2 693.3 915 693.6 1200.9 693.8C1170.4 664.9 1139.9 636.1 1109.5 607.2C878.9 607.4 648.2 607.7 417.6 607.9C392.8 636.3 368.1 664.7 343.4 693.1Z" fill="white"/>
<path d="M343.5 695.1C368.2 665.6 393.6 636.7 419.8 608.5C421.1 607.1 419 605 417.7 606.4C391.5 634.6 366.1 663.4 341.4 693C340.2 694.4 342.3 696.6 343.5 695.1Z" fill="#161616"/>
<path d="M340.8 695.1C340.8 701.3 340.8 707.5 340.8 713.8C340.8 715.7 343.8 715.7 343.8 713.8C343.8 707.6 343.8 701.4 343.8 695.1C343.8 693.2 340.8 693.2 340.8 695.1Z" fill="#161616"/>
<path d="M344.8 717.8C456.7 717.8 568.5 717.8 680.4 717.8C791.6 717.8 902.8 717.8 1014 717.8C1076.6 717.8 1139.2 717.8 1201.8 717.8C1203.7 717.8 1203.7 714.8 1201.8 714.8C1089.9 714.8 978.1 714.8 866.2 714.8C755 714.8 643.8 714.8 532.6 714.8C470 714.8 407.4 714.8 344.8 714.8C342.8 714.8 342.8 717.8 344.8 717.8Z" fill="#161616"/>
<path d="M1204.5 715C1204.5 707.5 1204.5 700.1 1204.5 692.6C1204.5 690.7 1201.5 690.7 1201.5 692.6C1201.5 700.1 1201.5 707.5 1201.5 715C1201.5 717 1204.5 717 1204.5 715Z" fill="#161616"/>
<path d="M342.3 717.8C344.2 717.8 344.2 714.8 342.3 714.8C340.4 714.8 340.3 717.8 342.3 717.8Z" fill="#161616"/>
<path d="M343.5 695.4C455.4 695.4 567.2 695.4 679.1 695.4C790.3 695.4 901.5 695.4 1012.7 695.4C1075.3 695.4 1137.9 695.4 1200.5 695.4C1202.4 695.4 1202.4 692.4 1200.5 692.4C1088.6 692.4 976.8 692.4 864.9 692.4C753.7 692.4 642.5 692.4 531.3 692.4C468.7 692.4 406.1 692.4 343.5 692.4C341.6 692.4 341.6 695.4 343.5 695.4Z" fill="#161616"/>
<path d="M420.6 609.6C510.5 609.6 600.4 609.6 690.2 609.6C779.4 609.6 868.6 609.6 957.8 609.6C1008.4 609.6 1059 609.6 1109.6 609.6C1111.5 609.6 1111.5 606.6 1109.6 606.6C1019.7 606.6 929.8 606.6 840 606.6C750.8 606.6 661.6 606.6 572.4 606.6C521.8 606.6 471.2 606.6 420.6 606.6C418.7 606.6 418.7 609.6 420.6 609.6Z" fill="#161616"/>
<path d="M1108.1 609.7C1138.4 637.8 1168.8 666 1199.1 694.1C1200.5 695.4 1202.6 693.3 1201.2 692C1170.9 663.9 1140.5 635.7 1110.2 607.6C1108.8 606.3 1106.7 608.4 1108.1 609.7Z" fill="#161616"/>
<path d="M385.6 716.3C385.6 810.9 385.6 905.5 385.6 1000.1C385.6 1027 385.6 1053.9 385.6 1080.8C385.6 1082.7 388.6 1082.7 388.6 1080.8C388.6 986.2 388.6 891.6 388.6 797C388.6 770.1 388.6 743.2 388.6 716.3C388.6 714.3 385.6 714.3 385.6 716.3Z" fill="#161616"/>
<path d="M411.7 717.5C411.7 811.5 411.7 905.5 411.7 999.5C411.7 1026.2 411.7 1052.8 411.7 1079.5C411.7 1081.4 414.7 1081.4 414.7 1079.5C414.7 985.5 414.7 891.5 414.7 797.5C414.7 770.8 414.7 744.2 414.7 717.5C414.7 715.6 411.7 715.6 411.7 717.5Z" fill="#161616"/>
<path d="M387.1 1083.7C395 1083.2 402.8 1082.7 410.7 1082.3C412.6 1082.2 412.6 1079.2 410.7 1079.3C402.8 1079.8 395 1080.3 387.1 1080.7C385.2 1080.9 385.1 1083.9 387.1 1083.7Z" fill="#161616"/>
<path d="M1144.3 716.3C1144.3 810.9 1144.3 905.5 1144.3 1000.1C1144.3 1027 1144.3 1053.9 1144.3 1080.8C1144.3 1082.7 1147.3 1082.7 1147.3 1080.8C1147.3 986.2 1147.3 891.6 1147.3 797C1147.3 770.1 1147.3 743.2 1147.3 716.3C1147.3 714.3 1144.3 714.3 1144.3 716.3Z" fill="#161616"/>
<path d="M1170.4 717.5C1170.4 811.5 1170.4 905.5 1170.4 999.5C1170.4 1026.2 1170.4 1052.8 1170.4 1079.5C1170.4 1081.4 1173.4 1081.4 1173.4 1079.5C1173.4 985.5 1173.4 891.5 1173.4 797.5C1173.4 770.8 1173.4 744.2 1173.4 717.5C1173.4 715.6 1170.4 715.6 1170.4 717.5Z" fill="#161616"/>
<path d="M1147 1081.7C1154.9 1081.2 1162.7 1080.7 1170.6 1080.3C1172.5 1080.2 1172.5 1077.2 1170.6 1077.3C1162.7 1077.8 1154.9 1078.3 1147 1078.7C1145.1 1078.8 1145.1 1081.8 1147 1081.7Z" fill="#161616"/>
<path d="M484.2 717.7C484.2 796.2 484.2 874.7 484.2 953.2C484.2 955.1 487.2 955.1 487.2 953.2C487.2 874.7 487.2 796.2 487.2 717.7C487.2 715.8 484.2 715.8 484.2 717.7Z" fill="#161616"/>
<path d="M514.1 719.1C514.1 797.1 514.1 875.2 514.1 953.2C514.1 955.1 517.1 955.1 517.1 953.2C517.1 875.2 517.1 797.1 517.1 719.1C517.1 717.2 514.1 717.2 514.1 719.1Z" fill="#161616"/>
<path d="M487 956.1C496.5 956.1 506.1 956.1 515.6 956.1C517.5 956.1 517.5 953.1 515.6 953.1C506.1 953.1 496.5 953.1 487 953.1C485.1 953.1 485.1 956.1 487 956.1Z" fill="#161616"/>
<path d="M1045 716.4C1045 795.3 1045 874.3 1045 953.2C1045 955.1 1048 955.1 1048 953.2C1048 874.3 1048 795.3 1048 716.4C1048 714.5 1045 714.4 1045 716.4Z" fill="#161616"/>
<path d="M1073.5 719.1C1073.5 797.1 1073.5 875.2 1073.5 953.2C1073.5 955.1 1076.5 955.1 1076.5 953.2C1076.5 875.2 1076.5 797.1 1076.5 719.1C1076.5 717.2 1073.5 717.2 1073.5 719.1Z" fill="#161616"/>
<path d="M1047.8 956.1C1056.9 956.1 1065.9 956.1 1075 956.1C1076.9 956.1 1076.9 953.1 1075 953.1C1065.9 953.1 1056.9 953.1 1047.8 953.1C1045.9 953.1 1045.9 956.1 1047.8 956.1Z" fill="#161616"/>
<path d="M945.6 590.9C943.9 593.1 943.5 595.4 943.3 597.4C941.1 613.4 941.9 625.5 941.9 625.5C942.3 631.5 942.7 640.4 943 651.8C947.3 656.3 951.4 658.1 954 659C961.5 661.5 968.6 659.8 982.4 656.3C988 654.9 992.4 653.5 995.4 652.5C997.6 648.4 998.3 644.9 998.5 642.6C998.9 637.7 997.4 635.4 999.2 632.9C1001 630.4 1003.6 630.9 1004.8 628.2C1005.5 626.6 1005.4 624.2 1004.3 623.3C1002.4 622 999 625.4 997.3 624C996.8 623.6 996.8 623.2 996.6 619.5C996.3 614.5 996.2 613.9 996.8 613.4C997.3 612.8 999 612.8 1002.2 612.9C1004.6 612.9 1005.7 612.9 1006.2 613.3C1008.1 614.8 1007.3 619.7 1005.5 623.2C1003.2 627.6 999.7 629 1000.1 629.9C1000.6 630.8 1005 629.9 1008.6 627.7C1010.7 626.4 1013.8 624.6 1014.5 621.2C1015.7 616.2 1010.9 611.8 1010.2 611.1C1004.3 605.6 995.7 607.4 994.6 607.7C994.7 602.9 994.8 598.1 995 593.3C982.1 587.6 971.3 586.3 964.6 586.1C950.5 585.6 946.8 589.2 945.6 590.9Z" fill="white"/>
<path d="M941.2 595.4C939.7 613.8 939.5 632.1 940.6 650.5C940.7 652.4 943.7 652.4 943.6 650.5C942.5 632.1 942.7 613.7 944.2 595.4C944.4 593.5 941.4 593.5 941.2 595.4Z" fill="#161616"/>
<path d="M940.8 651.3C954.2 666.1 975.1 661.5 991.4 655.2C993.2 654.5 992.4 651.6 990.6 652.3C975.3 658.2 955.5 663.2 942.9 649.2C941.6 647.8 939.5 649.9 940.8 651.3Z" fill="#161616"/>
<path d="M944.1 595.3C948 588.2 961.2 587.5 968.4 587.7C977 587.9 985.2 590.2 992.8 594.3C994.5 595.2 996 592.6 994.3 591.7C985.4 586.8 975.3 584.3 965.1 584.7C957.4 585 945.7 586.3 941.5 593.8C940.6 595.5 943.2 597 944.1 595.3Z" fill="#161616"/>
<path d="M993.1 594.6C993.1 599.1 993.1 603.6 993.1 608.1C993.1 609.1 994.1 609.7 995 609.5C1000 608.4 1007.9 609.5 1010.8 614.4C1016.5 623.8 1005.4 625.8 999.7 629.6C997.2 631.2 996.8 632.9 996.8 635.8C996.8 642.3 996.8 649.8 990.1 653.1C988.4 654 989.9 656.5 991.6 655.7C997.5 652.8 999.4 646.7 999.7 640.5C999.8 637.7 998.9 634.5 1001.1 632.2C1002.2 631.1 1004.4 630.6 1005.8 629.9C1008.8 628.5 1011.6 627 1013.6 624.3C1017.4 619.2 1015.3 613.9 1010.8 610.2C1006.1 606.4 1000 605.3 994.2 606.5C994.8 607 995.5 607.5 996.1 607.9C996.1 603.4 996.1 598.9 996.1 594.4C996 592.7 993 592.7 993.1 594.6Z" fill="#161616"/>
<path d="M995.4 613.5C995 617.2 995.2 620.9 996 624.5C996.4 626.4 999.3 625.6 998.9 623.7C998.2 620.3 998 616.9 998.4 613.5C998.6 611.6 995.6 611.6 995.4 613.5Z" fill="#161616"/>
<path d="M997.7 616.5C999.2 615.2 1001.4 614.3 1003.4 614.9C1005.3 615.5 1006.8 617.7 1005.9 619.7C1004.6 622.4 1000.2 622.4 997.6 622.4C995.7 622.4 995.7 625.4 997.6 625.4C1002.3 625.5 1009.9 624.1 1009.1 617.7C1008.8 615.1 1006.7 612.8 1004.2 612C1001.1 611.1 997.9 612.3 995.5 614.4C994.1 615.6 996.2 617.7 997.7 616.5Z" fill="#161616"/>
<path d="M952.7 590.6C950.7 592.2 947.4 591.4 947.1 594.8C946.8 597.5 949.1 599.4 951.4 599.9C956.6 601 963 599.7 968.4 599.8C974.8 599.9 981.3 600.4 987.7 601.1C988.5 601.2 989.2 600.3 989.2 599.6C989.2 597.9 989.2 597.8 988.3 596.3C987.3 594.7 984.7 596.2 985.7 597.8C985.9 598.4 986 599 986.2 599.6C986.7 599.1 987.2 598.6 987.7 598.1C980 597.2 972.3 596.8 964.6 596.8C962.7 596.8 960.7 596.8 958.8 596.9C957.4 596.9 954.5 597.7 953.3 597.1C952.7 596.2 952 595.3 951.4 594.4C951.9 594.3 952.5 594.2 953 594C953.5 593.6 954.4 593.2 954.9 592.8C956.4 591.5 954.2 589.4 952.7 590.6Z" fill="#161616"/>
<path opacity="0.09" d="M970.6 586.5C970.2 585.1 961.7 585.7 954 588.1C949.6 589.4 946.1 591.2 943.7 592.4C942.9 603.4 942.4 614.8 942.1 626.8C941.9 635.3 941.9 643.6 942.1 651.7C944.9 653.8 951.7 658.4 961.5 659.2C968.1 659.7 973.4 658.3 976.5 657.2C974.8 637.7 973.1 618.2 971.4 598.7C963.4 598.6 957.1 597.9 956.8 595.9C956.2 592.8 971.2 588.4 970.6 586.5Z" fill="#4C4C4C"/>
<path opacity="0.11" d="M944.1 598.7C948.3 612 952.7 625.5 957.1 639C959.3 645.8 961.6 652.5 963.8 659.2C961 659.1 956.5 658.6 951.6 656.4C947.4 654.6 944.4 652.2 942.5 650.5C941.9 641.7 941.6 631.9 942.1 621.3C942.5 613.2 943.2 605.6 944.1 598.7Z" fill="#4C4C4C"/>
<path d="M975.6 425.6C974.7 430.2 973.6 437 972.4 445.3C968.7 472.6 968.8 493.8 968.9 510.3C969 522.4 969.5 538.1 971 556.6C975.8 558.3 983.6 560.9 993.5 563.3C1010.6 567.5 1020.6 567.9 1049 571.7C1066.5 574.1 1062.4 573.9 1077.8 575.9C1100.5 578.9 1114.8 580.8 1132.9 581.2C1141.2 581.4 1152.8 581.3 1167 580.1C1169.5 569.2 1172.2 555.4 1174 539.4C1174.5 535.4 1176.4 517.2 1176.1 492.4C1175.9 476.5 1174.7 456.5 1171.2 433.4C1167.4 432.5 1162.1 431.2 1155.8 429.9C1148.3 428.3 1122.1 423 1086.3 420.8C1048.4 418.4 1019.4 420.7 1009.8 421.5C995.8 422.6 984.2 424.2 975.6 425.6Z" fill="white"/>
<path d="M320.9 501.7C338.2 545.8 355.4 589.9 372.7 634C423.3 603.3 473.9 572.5 524.5 541.8C509.9 506 495.4 470.1 480.8 434.3C455.1 443 428 453.2 399.7 465.1C371.3 477.1 345.1 489.4 320.9 501.7Z" fill="white"/>
<path d="M371.8 635.8C390.6 647.2 411.5 658.7 434.7 669.6C449.1 676.5 463.2 682.5 476.6 687.9C499.7 672.3 522.8 656.7 545.8 640.9C568.5 625.3 591.2 609.7 613.8 593.9C585 576.8 556.1 559.8 527.3 542.7C475.4 573.8 423.6 604.8 371.8 635.8Z" fill="white"/>
<path d="M400 638C443.7 611.6 488.1 585.9 529.7 556.2C531.3 555.1 529.8 552.5 528.2 553.6C486.6 583.3 442.2 609 398.5 635.4C396.9 636.4 398.4 639 400 638Z" fill="#161616"/>
<path d="M416.6 648.3C460.3 621.9 504.7 596.2 546.3 566.5C547.9 565.4 546.4 562.8 544.8 563.9C503.2 593.6 458.8 619.3 415.1 645.7C413.5 646.7 415 649.3 416.6 648.3Z" fill="#161616"/>
<path d="M436.9 658C480.6 631.6 525 605.9 566.6 576.2C568.2 575.1 566.7 572.5 565.1 573.6C523.5 603.3 479.1 629 435.4 655.4C433.7 656.4 435.2 659 436.9 658Z" fill="#161616"/>
<path d="M453.5 668.3C497.2 641.9 541.6 616.2 583.2 586.5C584.8 585.4 583.3 582.8 581.7 583.9C540.1 613.6 495.7 639.3 452 665.7C450.3 666.7 451.8 669.3 453.5 668.3Z" fill="#161616"/>
<path d="M413.6 628.6C424.6 635.6 435.7 642.5 446.7 649.5C448.3 650.5 449.8 647.9 448.2 646.9C437.2 639.9 426.1 633 415.1 626C413.5 625 412 627.6 413.6 628.6Z" fill="#161616"/>
<path d="M430.8 618.6C441.1 625.9 451.4 633.1 461.7 640.4C463.3 641.5 464.8 638.9 463.2 637.8C452.9 630.5 442.6 623.3 432.3 616C430.8 614.9 429.3 617.5 430.8 618.6Z" fill="#161616"/>
<path d="M447.3 608.5C457.2 615.7 467 623.1 476.5 630.9C478 632.1 480.1 630 478.6 628.8C468.9 620.9 458.9 613.3 448.8 606C447.2 604.7 445.7 607.3 447.3 608.5Z" fill="#161616"/>
<path d="M464.5 598.7C474.2 605.6 483.4 613.1 492.2 621.1C493.6 622.4 495.7 620.3 494.3 619C485.3 610.8 475.9 603.2 466 596.1C464.4 595 462.9 597.6 464.5 598.7Z" fill="#161616"/>
<path d="M480.3 590.1C489.3 597.5 497.7 605.4 505.6 613.9C506.9 615.3 509 613.2 507.7 611.8C499.8 603.3 491.3 595.4 482.4 588C481 586.8 478.8 588.9 480.3 590.1Z" fill="#161616"/>
<path d="M492.8 580.3C502.6 588 511.5 596.5 519.7 605.8C521 607.3 523.1 605.1 521.8 603.7C513.6 594.4 504.7 585.9 494.9 578.2C493.5 577 491.3 579.1 492.8 580.3Z" fill="#161616"/>
<path d="M508.4 569.6C518 577.3 527.4 585.3 536.3 593.7C537.7 595 539.8 592.9 538.4 591.6C529.4 583.2 520.1 575.1 510.5 567.5C509 566.3 506.9 568.4 508.4 569.6Z" fill="#161616"/>
<path d="M521.6 562.2C526.9 565.2 531.1 570 535.5 574.2C539.8 578.3 544 582.4 548.3 586.5C549.7 587.8 551.8 585.7 550.4 584.4C545.7 579.9 541 575.3 536.3 570.8C532.2 566.8 528.2 562.5 523.2 559.6C521.4 558.7 519.9 561.3 521.6 562.2Z" fill="#161616"/>
<path d="M398 638.2C409.7 645.8 421.9 652.6 434.5 658.6C436.2 659.4 437.8 656.8 436 656C423.4 650 411.3 643.1 399.5 635.6C397.9 634.6 396.4 637.2 398 638.2Z" fill="#161616"/>
<path d="M529.5 557C529.9 557.1 530.3 557.2 530.7 557.3C531.5 557.5 532.4 557.1 532.5 556.3C532.7 555.5 532.3 554.7 531.5 554.5C531.1 554.4 530.7 554.3 530.3 554.2C529.5 554 528.6 554.4 528.5 555.2C528.2 555.9 528.7 556.8 529.5 557Z" fill="#161616"/>
<path d="M529.2 556.8C541.8 562.4 552.7 571 564.9 577.3C566.6 578.2 568.1 575.6 566.4 574.7C554.2 568.4 543.3 559.8 530.7 554.2C529 553.4 527.4 556 529.2 556.8Z" fill="#161616"/>
<path d="M433.2 658.5C439.4 661.6 445.4 665.1 451.1 669C452.7 670.1 454.2 667.5 452.6 666.4C446.8 662.5 440.9 659 434.7 655.9C433 655 431.5 657.6 433.2 658.5Z" fill="#161616"/>
<path d="M447.6 650.1C452.2 653.5 456.6 657.2 460.8 661.2C462.2 662.5 464.3 660.4 462.9 659.1C458.6 654.9 454 651.1 449.1 647.5C447.6 646.3 446.1 648.9 447.6 650.1Z" fill="#161616"/>
<path d="M462 641C467 644.7 471.6 648.8 475.8 653.3C477.1 654.7 479.2 652.6 477.9 651.2C473.5 646.5 468.7 642.2 463.5 638.4C462 637.3 460.5 639.9 462 641Z" fill="#161616"/>
<path d="M477.1 631.4C481.3 635.4 485.3 639.6 489.2 643.8C490.5 645.2 492.6 643.1 491.3 641.7C487.4 637.4 483.4 633.3 479.2 629.3C477.8 627.9 475.7 630 477.1 631.4Z" fill="#161616"/>
<path d="M518.8 605C522.8 609.7 526.8 614.5 530.9 619.2C532.1 620.7 534.3 618.5 533 617.1C529 612.4 525 607.6 520.9 602.9C519.6 601.4 517.5 603.6 518.8 605Z" fill="#161616"/>
<path d="M536.5 594.4C540.5 598.6 544.3 603 548.1 607.4C549.4 608.9 551.5 606.7 550.2 605.3C546.4 600.9 542.6 596.5 538.6 592.3C537.3 590.9 535.2 593 536.5 594.4Z" fill="#161616"/>
<path d="M548.2 586.6C554.6 589.6 560.9 592.5 567.3 595.5C569 596.3 570.6 593.7 568.8 592.9C562.4 589.9 556.1 587 549.7 584C548 583.2 546.4 585.8 548.2 586.6Z" fill="#161616"/>
<path d="M564.6 576.5C570.2 580 575.9 583.3 581.7 586.3C583.4 587.2 584.9 584.6 583.2 583.7C577.4 580.7 571.7 577.4 566.1 573.9C564.5 572.8 563 575.4 564.6 576.5Z" fill="#161616"/>
<path d="M654.3 372.9C653.1 384 652.1 395.4 651.5 407.3C649 455.9 653.1 499.8 659.9 537.6C681 537.5 698 537.2 708.7 536.9C782.1 535.1 813.9 530.8 879.3 530.6C895.9 530.6 909.2 530.8 916.9 531C919.5 520.6 921.8 509.6 923.6 498C931.7 445.2 926.6 398.6 918.7 362.5C905.1 359.9 885 356.8 860.4 355.5C844.3 354.7 839.8 355.3 775.1 358.3C729.1 360.4 716.8 360.8 695.4 364.3C678 366.9 663.8 370.3 654.3 372.9Z" fill="white"/>
<path d="M1048.6 572.3C1049.2 585.9 1049 599.5 1047.9 613C1047.8 614.9 1050.8 614.9 1050.9 613C1052 599.4 1052.2 585.9 1051.6 572.3C1051.5 570.3 1048.5 570.3 1048.6 572.3Z" fill="#161616"/>
<path d="M1066.2 575.2C1066.2 587.8 1066.2 600.4 1066.2 613C1066.2 614.9 1069.2 614.9 1069.2 613C1069.2 600.4 1069.2 587.8 1069.2 575.2C1069.2 573.2 1066.2 573.2 1066.2 575.2Z" fill="#161616"/>
<path d="M1048.3 611.6C1045.1 611.4 1032.8 613.6 1035.3 619.3C1036.4 621.9 1040.8 622.1 1043 622.5C1048.1 623.3 1053.3 623.5 1058.4 623.5C1063.3 623.4 1068.4 623.4 1073.3 622.8C1075.6 622.5 1080.3 622 1081.7 619.7C1084.8 614.4 1071 611.9 1068.4 611.5C1066.5 611.2 1065.7 614.1 1067.6 614.4C1069.8 614.8 1071.9 615.2 1074.1 616C1077 617 1079.8 617.6 1076.2 619.3C1072.2 621.1 1065.7 620.4 1061.4 620.5C1056.4 620.6 1051.3 620.6 1046.3 620C1044.4 619.8 1036.8 619.9 1040.5 616.3C1042.3 614.5 1046.1 614.5 1048.4 614.6C1050.3 614.7 1050.3 611.7 1048.3 611.6Z" fill="#161616"/>
<path d="M971.4 558.8C996.5 566.3 1022.2 571.2 1048.3 573.5C1050.2 573.7 1050.2 570.7 1048.3 570.5C1022.5 568.3 997 563.4 972.2 556C970.4 555.4 969.6 558.3 971.4 558.8Z" fill="#161616"/>
<path d="M1066.5 575.5C1099.9 581.4 1133.9 583.6 1167.6 580.2C1169.5 580 1169.5 577 1167.6 577.2C1134.1 580.5 1100.4 578.5 1067.3 572.6C1065.4 572.3 1064.6 575.2 1066.5 575.5Z" fill="#161616"/>
<path d="M972.4 556.4C970 513 967.8 469.1 977.4 426.3C977.8 424.4 974.9 423.6 974.5 425.5C964.9 468.5 967.1 512.7 969.4 556.4C969.5 558.3 972.5 558.3 972.4 556.4Z" fill="#161616"/>
<path d="M976.1 427.3C1008.1 420.5 1042 421.4 1074.6 422C1106.7 422.6 1139 425.5 1169.8 435.1C1171.6 435.7 1172.4 432.8 1170.6 432.2C1139.5 422.5 1107 419.6 1074.6 419C1041.8 418.4 1007.6 417.5 975.3 424.4C973.4 424.9 974.2 427.7 976.1 427.3Z" fill="#161616"/>
<path d="M1169.9 434.4C1177.1 482.1 1175.8 530.9 1166.2 578.1C1165.8 580 1168.7 580.8 1169.1 578.9C1178.8 531 1180.1 481.8 1172.8 433.6C1172.5 431.7 1169.6 432.5 1169.9 434.4Z" fill="#161616"/>
<path d="M319.4 503.5C336.8 548.3 354.2 593 371.6 637.8C372.3 639.6 375.2 638.8 374.5 637C357.1 592.2 339.7 547.5 322.3 502.7C321.6 500.9 318.7 501.7 319.4 503.5Z" fill="#161616"/>
<path d="M371 638.8C405 657.3 439.8 674.3 475.2 689.9C477 690.7 478.5 688.1 476.7 687.3C441.3 671.7 406.5 654.6 372.5 636.2C370.8 635.3 369.3 637.8 371 638.8Z" fill="#161616"/>
<path d="M477.2 690.1C522.8 658.7 568.5 627.2 614.1 595.8C615.7 594.7 614.2 592.1 612.6 593.2C567 624.6 521.3 656.1 475.7 687.5C474.1 688.6 475.6 691.2 477.2 690.1Z" fill="#161616"/>
<path d="M320.7 503.2C372.7 477.3 426.3 454.7 481.2 435.5C483 434.9 482.2 432 480.4 432.6C425.3 451.9 371.5 474.6 319.2 500.6C317.4 501.5 318.9 504 320.7 503.2Z" fill="#161616"/>
<path d="M373.6 636.7C424.1 605.8 474.7 574.9 525.2 544C526.8 543 525.3 540.4 523.7 541.4C473.2 572.3 422.6 603.2 372.1 634.1C370.5 635.1 372 637.7 373.6 636.7Z" fill="#161616"/>
<path d="M479.2 435.1C493.9 470.6 508.5 506.1 523.2 541.5C523.9 543.3 526.8 542.5 526.1 540.7C511.4 505.2 496.8 469.7 482.1 434.3C481.4 432.5 478.5 433.3 479.2 435.1Z" fill="#161616"/>
<path d="M525.3 543.3C554.7 560.1 584.1 577 613.4 593.8C615.1 594.8 616.6 592.2 614.9 591.2C585.5 574.4 556.1 557.5 526.8 540.7C525.1 539.8 523.6 542.4 525.3 543.3Z" fill="#161616"/>
<path d="M651.5 373.6C647.4 428.1 652.6 482.7 657.9 536.9C658.1 538.8 661.1 538.8 660.9 536.9C655.6 482.6 650.4 428.1 654.5 373.6C654.7 371.7 651.7 371.7 651.5 373.6Z" fill="#161616"/>
<path d="M653.9 374.9C685.7 363.3 720 362.5 753.4 360.5C788.1 358.4 822.9 355.7 857.6 356.7C878 357.3 898.3 359.2 918.4 363.3C920.3 363.7 921.1 360.8 919.2 360.4C884.6 353.3 849.3 352.7 814.2 354.1C778.8 355.5 743.1 357.2 707.9 360.6C689.3 362.4 670.8 365.5 653.1 371.9C651.3 372.7 652.1 375.6 653.9 374.9Z" fill="#161616"/>
<path d="M918.4 362C928.6 417.4 927.9 474.5 916.2 529.7C916.7 529.3 917.2 529 917.6 528.6C850.8 530.8 784.1 532.9 717.3 535.1C698.4 535.7 679.4 536.3 660.5 536.9C658.6 537 658.6 540 660.5 539.9C727.3 537.7 794 535.6 860.8 533.4C879.7 532.8 898.7 532.2 917.6 531.6C918.2 531.6 918.9 531.2 919 530.5C930.7 474.8 931.5 417.2 921.2 361.2C920.9 359.3 918 360.1 918.4 362Z" fill="#161616"/>
<path d="M1050.3 571.9C1050.3 577.5 1050.2 583.2 1050.1 588.9C1049.9 596.9 1049.7 604.9 1049.4 612.7C1048.1 612.5 1045.3 612.3 1042.2 613.6C1041.9 613.7 1036.3 616.1 1036.5 618.2C1037 621.8 1054.9 622.3 1064.7 621.9C1070.3 621.7 1080.6 621.3 1080.9 619.1C1081.1 617.4 1075.9 615.2 1068.5 613C1068.2 599.8 1067.9 586.5 1067.6 573.3C1061.8 572.8 1056 572.3 1050.3 571.9Z" fill="black"/>
<path d="M984.9 437.3C981 470.2 979.8 503.3 981.4 536.4C981.5 538.3 984.5 538.3 984.4 536.4C982.9 503.3 984.1 470.2 987.9 437.3C988.1 435.4 985.1 435.4 984.9 437.3Z" fill="#E8E8E8"/>
<path d="M987.3 438.5C1001.1 433.4 1015.7 432.1 1030.3 431.9C1044.7 431.8 1059.1 432.3 1073.4 433.2C1103.2 435.1 1132.8 439.2 1162 445.2C1163.9 445.6 1164.7 442.7 1162.8 442.3C1133.3 436.2 1103.5 432.1 1073.4 430.2C1058.5 429.2 1043.4 428.7 1028.5 428.9C1014.3 429.1 1000 430.6 986.6 435.6C984.7 436.2 985.5 439.1 987.3 438.5Z" fill="#E8E8E8"/>
<path d="M1161.8 444C1163.3 483 1159.7 522 1155.8 560.8C1155.6 562.7 1158.6 562.7 1158.8 560.8C1162.7 522 1166.2 483 1164.8 444C1164.7 442.1 1161.7 442.1 1161.8 444Z" fill="#E8E8E8"/>
<path d="M981.9 538.6C993.7 545.6 1008.7 547.8 1021.9 550.7C1037.2 554.1 1052.7 556.9 1068.3 559.1C1083 561.2 1097.8 562.7 1112.7 563.7C1127.3 564.7 1142.8 566.3 1157.2 563.4C1159.1 563 1158.3 560.1 1156.4 560.5C1142 563.5 1126.3 561.6 1111.7 560.7C1096.8 559.7 1081.9 558.1 1067.2 556C1052.9 553.9 1038.7 551.4 1024.6 548.3C1011.1 545.3 995.5 543.1 983.4 536.1C981.7 535 980.2 537.6 981.9 538.6Z" fill="#E8E8E8"/>
<path d="M985.5 452C1044.8 448.4 1104.1 455 1162.7 463.2C1164.6 463.5 1165.4 460.6 1163.5 460.3C1104.6 452 1045.1 445.4 985.5 449C983.6 449.1 983.6 452.1 985.5 452Z" fill="#E8E8E8"/>
<path d="M1005.8 442.1C1005.1 441.9 1005.1 441 1005.8 440.8C1006.7 440.4 1007.4 441.4 1007.3 442.2C1007.2 443.5 1005.7 442.6 1005.9 441.9C1006 441.8 1006.1 441.7 1006.2 441.6C1006.1 441.7 1006 441.5 1006 441.5C1006.1 441.3 1006.7 440.8 1006.7 441.5C1006.7 439.6 1003.7 439.6 1003.7 441.5C1003.7 443 1004.9 444.1 1006.4 444.1C1008 444.1 1009.2 442.7 1008.9 441.1C1008.7 439.5 1007.2 438.4 1005.6 438.6C1003.9 438.9 1002.7 440.5 1002.8 442.2C1003.1 445.9 1008.5 447.2 1009.9 443.5C1011.1 440.5 1008.5 437 1005.2 437.7C1003.6 438 1002.2 439.4 1002.2 441.1C1002.1 442.8 1003.3 444.4 1004.9 444.9C1006.8 445.5 1007.6 442.6 1005.8 442.1Z" fill="#E8E8E8"/>
<path d="M1021.8 440.2C1021.3 440.1 1021.8 439.7 1022.1 439.7C1022.7 439.8 1022.6 440.5 1022.1 440.5C1022 440.5 1022 440.5 1022 440.5C1022 440.5 1021.9 440.4 1021.9 440.2C1021.9 440.2 1021.9 440 1021.9 439.9C1021.9 439.9 1021.9 440 1021.8 440C1021.6 440 1022 439.9 1021.9 440C1022.6 439.7 1021.8 440.2 1022 440C1022 440 1022 439.6 1022 439.8C1022 439.8 1022.5 439.9 1022 439.8C1021.2 439.5 1020.4 440.1 1020.2 440.8C1020 441.6 1020.5 442.4 1021.2 442.6C1022.5 443.1 1024 442.3 1024.6 441.1C1025.3 439.9 1024.9 438.4 1023.8 437.6C1021.7 436 1018.6 437.6 1018.8 440.3C1019.1 443.2 1022.5 444.3 1024.5 442.2C1026.5 440 1024.8 436.6 1021.9 436.5C1020.3 436.5 1018.8 437.6 1018.5 439.2C1018.1 440.8 1019.2 442.5 1020.8 442.9C1022.9 443.6 1023.7 440.7 1021.8 440.2Z" fill="#E8E8E8"/>
<path d="M1051.7 479.6C1038.2 485.2 1024.9 491.1 1011.7 497.2C1010.4 497.8 1011 499.6 1012.1 499.9C1023.4 503.9 1034.2 508.9 1044.6 514.8C1046.3 515.8 1047.8 513.2 1046.1 512.2C1035.5 506.1 1024.4 501.1 1012.9 497C1013 497.9 1013.1 498.8 1013.3 499.7C1026.3 493.7 1039.4 487.9 1052.6 482.4C1054.3 481.7 1053.5 478.8 1051.7 479.6Z" fill="#E8E8E8"/>
<path d="M1089.4 475.1C1078.1 489.4 1066.9 503.6 1055.6 517.9C1054.4 519.4 1056.5 521.5 1057.7 520C1069 505.7 1080.2 491.5 1091.5 477.2C1092.7 475.8 1090.6 473.6 1089.4 475.1Z" fill="#E8E8E8"/>
<path d="M1104.5 491.7C1113.9 497.7 1123.7 503 1133.8 507.6C1133.8 506.7 1133.8 505.9 1133.8 505C1123 511.1 1112.2 517.2 1101.4 523.2C1099.7 524.1 1101.2 526.7 1102.9 525.8C1113.7 519.7 1124.5 513.6 1135.3 507.6C1136.2 507.1 1136.3 505.5 1135.3 505C1125.2 500.4 1115.4 495.1 1106 489.1C1104.4 488 1102.9 490.6 1104.5 491.7Z" fill="#E8E8E8"/>
<path d="M1106.4 555.7C1118.8 556 1131.1 556.3 1143.5 556.5C1145.4 556.5 1145.4 553.5 1143.5 553.5C1131.1 553.2 1118.8 552.9 1106.4 552.7C1104.5 552.7 1104.5 555.7 1106.4 555.7Z" fill="#E8E8E8"/>
<path d="M329.2 506.2C344.6 542.9 359 580 372.6 617.4C373.3 619.2 376.2 618.4 375.5 616.6C361.9 579.2 347.5 542.1 332.1 505.4C331.3 503.6 328.4 504.4 329.2 506.2Z" fill="#E8E8E8"/>
<path d="M331 505.4C378.6 485.9 426.2 466.3 473.5 446.1C475.3 445.3 473.7 442.8 472 443.5C424.9 463.6 377.6 483.1 330.2 502.5C328.4 503.3 329.2 506.2 331 505.4Z" fill="#E8E8E8"/>
<path d="M473.2 445.3C487.2 475.2 500.2 505.5 512.3 536.1C513 537.9 515.9 537.1 515.2 535.3C503 504.4 489.9 473.8 475.8 443.7C475 442.1 472.4 443.6 473.2 445.3Z" fill="#E8E8E8"/>
<path d="M376.2 619.5C399.6 606.4 422.7 593 445.6 579.2C456.9 572.4 468.2 565.5 479.4 558.5C490.4 551.6 501.4 544.6 513.3 539.2C515.1 538.4 513.5 535.8 511.8 536.6C499.9 542 488.9 549 477.9 555.9C466.7 562.9 455.4 569.8 444.1 576.6C421.2 590.4 398 603.8 374.7 616.9C373 617.9 374.5 620.5 376.2 619.5Z" fill="#E8E8E8"/>
<path d="M387.8 528.6C381.2 524.6 374.6 531.5 370.8 536.4C366.2 542.3 365 549.4 367.8 556.4C370.3 562.5 375.9 568.6 383 568.2C391.4 567.7 396.4 560.3 400.2 553.7C401.2 552 398.6 550.5 397.6 552.2C394.9 556.9 391.9 562.1 386.6 564.2C380.3 566.8 374.7 563 371.6 557.5C369.2 553.3 368.4 548.1 370 543.4C371.6 538.9 380.2 527.6 386.2 531.2C387.9 532.2 389.5 529.6 387.8 528.6Z" fill="#5222D0"/>
<path d="M423.4 512.3C423.4 507.7 418.7 509 416.2 510.9C412.2 513.9 407.4 520.7 406.7 525.7C405.9 532 412.8 530.8 417.1 530.4C422.5 529.9 430.1 531.9 425.9 539.1C423.2 543.7 417.7 545.8 412.7 546C410.8 546.1 410.8 549.1 412.7 549C420.3 548.6 434.4 541.4 429.3 531.6C427.1 527.5 422.2 526.9 418 527.2C416.9 527.3 413.8 528.1 412.7 527.7C408.7 526.2 410.9 523 411.9 521.1C412.6 519.8 413.3 518.4 414.2 517.2C414.5 516.8 420.3 511 420.3 512.2C420.4 514.3 423.4 514.3 423.4 512.3Z" fill="#5222D0"/>
<path d="M461.6 489.7C456.7 487.8 452.3 492 449.4 495.5C447 498.3 442.7 504 444.2 508.1C445.8 512.5 452.6 510.5 455.8 510.1C457.5 509.9 459.4 509.6 461.1 509.9C465.6 510.5 467.2 515.1 465.1 518.8C462.6 523.2 457.7 524.6 453.1 525.2C451.2 525.5 452 528.4 453.9 528.1C461.3 527 474.3 519.5 467.9 510.2C464.8 505.7 458.6 506.8 454.1 507.3C453.1 507.4 449.4 508.4 448.8 507.7C447.3 506.2 448.2 502.7 449.1 501.1C451.1 497.7 456 490.6 460.9 492.5C462.6 493.3 463.4 490.4 461.6 489.7Z" fill="#5222D0"/>
<path d="M464 556.4C471.5 551.6 479.1 546.7 486.6 541.9C488.2 540.9 486.7 538.3 485.1 539.3C477.6 544.1 470 549 462.5 553.8C460.9 554.9 462.4 557.5 464 556.4Z" fill="#E8E8E8"/>
<path d="M493 538.6C494.9 537.7 496.8 536.8 498.8 535.9C500.5 535.1 499 532.5 497.3 533.3C495.4 534.2 493.5 535.1 491.5 536C489.7 536.8 491.3 539.4 493 538.6Z" fill="#E8E8E8"/>
<path d="M446.9 463.6C447 463.4 447 463.2 447.1 462.9C447.1 462.8 447.2 462.8 447.2 462.7C447.4 462.6 447.6 462.4 447.9 462.3C447.6 462.4 448.5 462.4 448.6 462.4C448.9 462.5 448.9 462.7 449 462.9C449.1 463.1 449 462.7 449 462.9C448.9 463.2 449 462.7 449 462.9C449 463 449 463 449 462.9L448.9 463C448.8 463 448.7 463.1 448.7 463.1C448.5 463.2 448.6 463 448.7 463.1C448.6 463.1 448.5 463.1 448.6 463.1C448.7 463.1 448.7 463.1 448.6 463.1C448.6 463 448.6 463.2 448.6 463.1C448.6 463.1 448.5 463.1 448.5 463C448.4 462.9 448.5 462.9 448.5 463.1C448.5 463 448.5 463 448.5 463.1C448.5 463.1 448.4 462.8 448.5 462.8C448.5 462.8 448.4 463 448.4 463.1C448.5 462.8 448.3 463.2 448.4 463C448.4 463 448.6 462.8 448.5 462.9C448.4 463 448.7 462.9 448.7 462.9C448.8 462.9 448.9 462.9 448.9 463C449 463 449 463.1 448.9 463C448.9 463 449 463.3 449 463.1C449 462.9 449 463.4 449 463.5C448.9 463.8 448.6 463.9 448.4 463.9C448.6 463.9 448.4 463.9 448.3 463.9C448.5 464 448.3 463.9 448.2 463.9C448.4 464 448.1 463.8 448.1 463.8C448 463.6 448 463.5 448 463.3C448 463 448 462.9 448.3 462.7C448.5 462.5 448.5 462.5 448.4 462.6C448.5 462.6 448.5 462.5 448.6 462.5C448.4 462.5 448.7 462.5 448.7 462.5C448.5 462.5 448.8 462.5 448.8 462.5C448.6 462.4 448.9 462.6 449 462.6C449.2 462.7 449.4 463.1 449.4 463.3C449.4 462.5 448.7 461.8 447.9 461.8C447.1 461.8 446.4 462.5 446.4 463.3C446.4 466.1 450.9 466.1 451 463.4C451.1 460.7 446.8 460.2 446.2 462.8C445.9 464.1 446.8 465.5 448.1 465.9C449.3 466.2 450.6 465.6 451.1 464.5C451.7 463.4 451.5 462 450.6 461.1C449.7 460.2 448.2 459.9 447.1 460.6C445.9 461.3 445.5 463 446.2 464.2C446.6 464.8 447.3 465.3 448 465.3C448.9 465.3 449.8 464.5 449.8 463.5C449.7 462.7 449.2 462 448.3 462C447.7 462.1 446.9 462.8 446.9 463.6Z" fill="#E8E8E8"/>
<path d="M460.5 457.6C461.3 457.4 461.6 458.7 460.8 458.8C460.7 458.8 460.4 458.7 460.5 458.7C460.6 458.8 460.3 458.5 460.5 458.7C460.3 458.5 460.4 458.6 460.5 458.8C460.5 458.7 460.5 458.7 460.4 458.6C460.4 458.7 460.4 458.7 460.4 458.6C460.4 458.5 460.4 458.5 460.4 458.6C460.4 458.7 460.4 458.7 460.4 458.5C460.4 458.4 460.5 458.2 460.6 458.1C460.7 458 460.9 458 461 457.9C460.6 457.9 461.3 457.9 461 457.9C461.1 457.9 461.1 457.9 461.2 458C461.1 457.9 461.1 457.9 461.2 458C461.3 458.1 461.3 458.1 461.2 458L461.3 458.1C461.2 457.8 461.4 458.4 461.3 458.1C461.3 458.2 461.3 458.6 461.4 458.4C461.1 458.7 460.7 459.1 460.4 459.4C460.6 459.3 460.9 459.2 461.1 459.2C460.9 459.2 461.3 459.2 461.1 459.2C461 459.2 461 459.2 461.1 459.2C461.2 459.2 461.2 459.2 461.1 459.2C461 459.1 460.9 459.1 460.8 458.9C460.8 458.8 460.7 458.5 460.7 458.6C460.7 458.8 460.8 458.3 460.7 458.5C460.8 458.1 461.2 457.8 461.6 457.8C460.8 457.8 460.1 458.5 460.1 459.3C460.1 460.1 460.8 460.8 461.6 460.8C463.9 460.8 464.4 457.6 462.5 456.5C461.6 456 460.5 456.1 459.5 456.5C458.3 457 458.1 458.4 458.7 459.5C459.7 461.3 462.6 461.5 463.3 459.3C463.9 457.5 462.2 455.5 460.3 455.8C459 456 458.1 457.5 458.4 458.7C458.7 460 460.1 460.8 461.3 460.4C462.1 460.2 462.6 459.3 462.3 458.6C462.1 457.9 461.3 457.4 460.5 457.6Z" fill="#E8E8E8"/>
<path d="M660.4 378.9C661.2 429 663.8 479 668.4 528.9C668.6 530.8 671.6 530.8 671.4 528.9C666.9 479 664.2 429 663.4 378.9C663.4 376.9 660.4 376.9 660.4 378.9Z" fill="#E8E8E8"/>
<path d="M663.9 380.5C684.4 376.9 705.2 376.2 725.9 375.3C746 374.5 766.2 373.7 786.3 373C826.9 371.5 867.5 370.3 908.1 369.2C910 369.2 910 366.2 908.1 366.2C866.8 367.3 825.6 368.5 784.3 370C763.8 370.7 743.4 371.5 722.9 372.4C702.9 373.2 682.9 374.1 663.1 377.6C661.3 377.9 662.1 380.8 663.9 380.5Z" fill="#E8E8E8"/>
<path d="M907.6 368.5C913.2 379.2 912.9 391.6 913.2 403.3C913.5 415.5 913.6 427.7 913.5 439.9C913.3 464.3 912.4 488.6 910.7 513C910.6 514.9 913.6 514.9 913.7 513C915.4 487.4 916.4 461.7 916.5 436C916.6 423.5 916.4 411 916.1 398.4C915.8 387.6 915.4 376.8 910.2 367C909.3 365.3 906.7 366.8 907.6 368.5Z" fill="#E8E8E8"/>
<path d="M670.6 529.3C749.4 514.7 830.4 516.6 910.1 515.3C912 515.3 912 512.3 910.1 512.3C830 513.6 748.8 511.8 669.8 526.4C667.9 526.8 668.7 529.7 670.6 529.3Z" fill="#E8E8E8"/>
<path d="M690.5 387.4C686.5 390.1 682.7 393.1 679.1 396.4C678.4 397.1 678.6 398.3 679.4 398.8C683 401 688.3 400.5 691.1 403.8C692.3 405.3 694.4 403.2 693.2 401.7C690.1 397.9 684.8 398.6 680.9 396.2C681 397 681.1 397.8 681.2 398.6C684.6 395.5 688.2 392.7 692 390.1C693.6 388.9 692.1 386.3 690.5 387.4Z" fill="#E8E8E8"/>
<path d="M707 385.9C702.9 392 699.5 398.3 696.6 405C695.8 406.8 698.4 408.3 699.2 406.5C702.1 399.8 705.5 393.4 709.6 387.4C710.6 385.8 708 384.3 707 385.9Z" fill="#E8E8E8"/>
<path d="M712.9 397.6C717.5 397 722.2 396.9 726.8 397.3C728.7 397.5 728.7 394.5 726.8 394.3C722.1 393.9 717.5 394 712.9 394.6C711 394.8 710.9 397.8 712.9 397.6Z" fill="#E8E8E8"/>
<path d="M730.2 386.8C733.8 391.8 740.4 392.2 744.5 396.5C744.6 395.7 744.7 394.9 744.8 394.1C740.4 396.6 736.4 399.5 732.8 402.9C731.4 404.2 733.5 406.3 734.9 405C738.4 401.8 742.2 399 746.3 396.7C747.2 396.2 747.3 395 746.6 394.3C742.7 390.3 736 389.8 732.7 385.2C731.6 383.8 729 385.3 730.2 386.8Z" fill="#E8E8E8"/>
<path d="M669.9 423.6C674 423.3 678.1 423 682.2 422.7C684.1 422.6 684.1 419.6 682.2 419.7C678.1 420 674 420.3 669.9 420.6C668 420.8 668 423.8 669.9 423.6Z" fill="#E8E8E8"/>
<path d="M691.8 422C719.5 420.4 747.2 418.7 774.9 417.1C776.8 417 776.8 414 774.9 414.1C747.2 415.7 719.5 417.4 691.8 419C689.9 419.1 689.8 422.1 691.8 422Z" fill="#E8E8E8"/>
<path d="M671.5 435.6C673.8 435.6 676 435.6 678.3 435.6C680.2 435.6 680.2 432.6 678.3 432.6C676 432.6 673.8 432.6 671.5 432.6C669.5 432.6 669.5 435.6 671.5 435.6Z" fill="#E8E8E8"/>
<path d="M686.6 434.4C689.3 434.6 692 434.3 694.6 433.6C696.5 433.1 695.7 430.2 693.8 430.7C691.4 431.3 689.1 431.5 686.6 431.3C684.7 431.3 684.7 434.3 686.6 434.4Z" fill="#E8E8E8"/>
<path d="M711.2 432.3C737.5 429.8 763.9 429.1 790.4 430.2C792.3 430.3 792.3 427.3 790.4 427.2C764 426.1 737.6 426.8 711.2 429.3C709.3 429.4 709.3 432.4 711.2 432.3Z" fill="#E8E8E8"/>
<path d="M675.2 450.6C673.5 452.7 671.7 454.8 669.7 456.7C668.9 457.5 669.3 458.9 670.4 459.2C673.5 460.1 676.7 460.5 679.9 460.6C681.8 460.6 681.8 457.6 679.9 457.6C676.9 457.6 674.1 457.2 671.2 456.3C671.4 457.1 671.6 458 671.9 458.8C673.9 456.9 675.7 454.9 677.4 452.7C678.5 451.2 676.3 449 675.2 450.6Z" fill="#E8E8E8"/>
<path d="M685.4 456.5C699 453.9 712.8 452.7 726.7 452.9C728.6 452.9 728.6 449.9 726.7 449.9C712.5 449.6 698.5 450.9 684.6 453.6C682.8 454 683.6 456.8 685.4 456.5Z" fill="#E8E8E8"/>
<path d="M730.8 449C735.7 451.5 741.6 449.8 746.3 452.5C746.4 451.6 746.5 450.7 746.7 449.8C743.9 450.7 741.4 452 739 453.7C737.4 454.8 738.9 457.4 740.5 456.3C742.7 454.8 744.9 453.6 747.5 452.7C748.7 452.3 749 450.6 747.9 450C743.1 447.1 737.3 449 732.4 446.5C730.6 445.5 729.1 448.1 730.8 449Z" fill="#E8E8E8"/>
<path d="M863.2 378.8C860.8 379.2 859.3 380.8 858.8 383.2C858.5 384.8 859 386.4 859.3 387.9C860.3 392.3 859.7 394.5 855.7 396.9C854.5 397.7 854.9 399.7 856.5 399.7C860.7 399.6 859.2 419 868.1 412.5C869.7 411.4 868.2 408.8 866.6 409.9C862.5 412.8 862.8 403.3 862.6 402.3C862.4 401.2 862.1 400.2 861.6 399.3C860.4 397.4 858.8 396.6 856.5 396.7C856.8 397.6 857 398.6 857.3 399.5C859.6 398.1 862 396.5 862.9 393.8C863.7 391.4 860.3 382.4 864.1 381.7C865.9 381.4 865.1 378.5 863.2 378.8Z" fill="#E8E8E8"/>
<path d="M882.7 380C886.1 379.5 887.4 381.5 886.8 386.2C886.5 386.8 886.2 387.3 885.9 387.9C885.7 388.9 885.3 389.6 885.3 390.7C885.3 392.8 886.7 393.2 887.4 394.8C888 396.3 887.3 396.1 887.1 398C886.5 402 892 405.3 886.8 408.9C885.2 410 886.7 412.6 888.3 411.5C890.5 410 892.1 407.8 892.1 405C892.1 403.9 891.6 402.9 891.3 401.9C890.7 399.4 891.1 397.6 891.8 395.2C891.9 394.7 891.8 394.1 891.4 393.7C891.1 393.5 890.3 392.9 890 392.6C887.6 390.2 889.2 389 890.3 386.3C890.9 384.7 891.4 383.4 890.9 381.7C890 378.1 886.2 376.9 882.9 377C880.8 377 880.8 380 882.7 380Z" fill="#E8E8E8"/>
<path d="M773.3 396C789.1 394.7 804.8 393.5 820.6 392.2C822.5 392 822.5 389 820.6 389.2C804.8 390.5 789.1 391.7 773.3 393C771.4 393.1 771.4 396.1 773.3 396Z" fill="#E8E8E8"/>
<path d="M841.3 391.2C844.9 391.7 848.5 391.6 852 391C853.9 390.7 853.1 387.8 851.2 388.1C847.9 388.6 844.6 388.6 841.3 388.2C839.4 387.9 839.4 390.9 841.3 391.2Z" fill="#E8E8E8"/>
<path d="M681 477.3C707.5 475.6 734 473.8 760.5 472.1C762.4 472 762.4 469 760.5 469.1C734 470.8 707.5 472.6 681 474.3C679.1 474.4 679.1 477.4 681 477.3Z" fill="#E8E8E8"/>
<path d="M777.7 470C787.8 469 797.8 468.1 807.9 467.2C809.8 467 809.8 464 807.9 464.2C797.8 465 787.7 466 777.7 467C775.8 467.2 775.8 470.2 777.7 470Z" fill="#E8E8E8"/>
<path d="M830.6 466.1C850.3 464.1 870.1 462.6 889.8 461.7C891.7 461.6 891.7 458.6 889.8 458.7C870 459.7 850.3 461.1 830.6 463.1C828.7 463.3 828.7 466.3 830.6 466.1Z" fill="#E8E8E8"/>
<path d="M692.8 487.2C689.1 489.8 685.3 492.5 681.6 495.1C680.6 495.8 680.6 497.5 682 497.8C685.9 498.8 689.8 499.6 693.8 500.2C695.7 500.5 696.5 497.6 694.6 497.3C690.6 496.7 686.7 495.9 682.8 494.9C682.9 495.8 683 496.7 683.2 497.6C686.9 495 690.7 492.3 694.4 489.7C695.9 488.6 694.4 486 692.8 487.2Z" fill="#E8E8E8"/>
<path d="M708.1 485.5C703.8 490.5 699.8 495.7 696.2 501.3C695.1 502.9 697.7 504.4 698.8 502.8C702.2 497.5 706 492.4 710.2 487.6C711.5 486.2 709.4 484 708.1 485.5Z" fill="#E8E8E8"/>
<path d="M717 489.8C718.3 490.8 719.7 491.3 721.1 491.8C722 492.1 722.9 492.3 723.8 492.6C724.3 492.8 724.9 493.1 725.3 493.4C725.2 492.7 724.9 492.5 724.4 492.8C723.1 492.7 720.6 494.3 719.4 494.9C717.5 495.8 715.8 497 714.1 498.2C712.6 499.3 714.1 501.9 715.6 500.8C717.8 499.1 720.2 497.7 722.8 496.6C724.4 495.9 727.8 495.6 728.3 493.5C728.7 491.7 726.7 490.7 725.4 490.1C723.1 489.1 720.5 488.8 718.4 487.3C717 486.1 715.5 488.7 717 489.8Z" fill="#E8E8E8"/>
<path d="M750.3 494C762.6 493 774.9 491.7 787.2 492.4C789.1 492.5 789.1 489.5 787.2 489.4C774.8 488.7 762.6 490 750.3 491C748.3 491.1 748.3 494.1 750.3 494Z" fill="#E8E8E8"/>
<path d="M813.9 489.5C837 486.8 860.2 485.8 883.5 486.3C885.4 486.3 885.4 483.3 883.5 483.3C860.3 482.8 837 483.9 813.9 486.5C812 486.7 812 489.7 813.9 489.5Z" fill="#E8E8E8"/>
<path opacity="0.16" d="M985.5 436.1C985 441.1 984.5 446.2 984.1 451.2C1013 450.3 1044.7 450.6 1078.7 452.8C1108.8 454.8 1136.9 458 1162.6 462C1163.2 455.7 1163.7 449.4 1164.3 443.1C1152.7 440.8 1137.4 438.1 1119.4 435.6C1096.3 432.4 1078.7 431 1069.1 430.3C1044.8 428.6 1032.4 427.8 1015.9 429.8C1003 431.5 992.6 434.1 985.5 436.1Z" fill="#5222D0"/>
<path opacity="0.12" d="M379.7 474.1C376.4 483.1 372.4 496.2 370.5 512.3C368.2 532.2 362.3 583 388.9 598.5C407.1 609.1 436.1 600.7 460.6 580.7C464.8 584.1 469.1 587.4 473.3 590.8C448.4 605.9 423.5 621 398.6 636.1C416.2 646.6 433.8 657 451.3 667.5C470.3 656.2 489.2 645 508.2 633.7C517.8 638.4 527.4 643.2 536.9 647.9C517 661.9 497.2 675.9 477.3 690C442.6 672.7 408 655.4 373.3 638.1C355.7 592.4 338.1 546.6 320.6 500.9C340.4 492.1 360.1 483.1 379.7 474.1Z" fill="#4C4C4C"/>
<path opacity="0.08" d="M1106 422.6C1108.4 428.3 1111.3 436.5 1113.1 446.7C1113.8 450.9 1119.3 484.2 1104.6 513.5C1088.9 544.9 1053.4 565.1 1013.4 567.4C1043.9 574 1079.6 579.2 1119.6 580.3C1136.4 580.8 1152.4 580.5 1167.4 579.6C1171.6 562.4 1175.2 541.9 1176.6 518.5C1178.6 484.7 1175.4 455.5 1171.2 433C1149.4 429.7 1127.7 426.1 1106 422.6Z" fill="#4C4C4C"/>
<path opacity="0.09" d="M858 355.8C861.5 362.3 865.9 372.1 867.7 384.6C872.2 414.8 858.7 438.9 849.4 455.1C821.4 503.6 774.7 526.9 753.9 535.8C797.3 535.5 841.9 534.2 887.5 531.5C897.7 530.9 907.8 530.3 917.9 529.6C922.3 510.2 925.9 487.3 927.3 461.4C929.3 421.8 925.2 387.6 919.9 361.3C899.3 359.4 878.7 357.6 858 355.8Z" fill="#4C4C4C"/>
<path d="M830 992.2C831 999 831.9 1006.1 832.7 1013.5C833.6 1022 834.1 1030.2 834.5 1038C835.3 1039.5 836.7 1041.5 839 1043.1C842.6 1045.6 846.5 1045.6 850.7 1045.5C862.9 1045.2 869 1045.1 871.7 1044.6C881.2 1042.7 890.2 1041 892.1 1035C893.4 1031 890.8 1026.6 890.6 1026.3C889.1 1023.8 887.1 1022.7 883.7 1020.9C881.4 1019.6 877.5 1017.6 872 1017C867.3 1016.5 863.4 1017.2 860.9 1017.9C859.6 1007.3 858.3 996.7 857 986.2C848 988.2 839 990.2 830 992.2Z" fill="black"/>
<path d="M811.9 794.3C803.8 803.1 806.3 812.5 803 869.2C801.7 892 801.2 890.9 800.8 904.6C799.7 935.9 801.4 957.5 802.4 968C803.1 975.9 804 982.5 804.6 987.1C810.5 990.1 820.6 994.1 833 992.8C840.3 992.1 845.8 989.7 849.9 988C858.9 984.2 865.5 979.2 869.7 975.6C868 912.5 866.3 849.4 864.6 786.3C829.3 779.6 816.6 789.2 811.9 794.3Z" fill="white"/>
<path d="M805 802.6C799.4 863.3 798.7 924.4 802.9 985.3C803 987.2 806 987.2 805.9 985.3C801.7 924.5 802.4 863.3 808 802.6C808.2 800.7 805.2 800.7 805 802.6Z" fill="#161616"/>
<path d="M804.4 988.2C826.6 999.7 852.1 993.1 869.9 976.8C871.3 975.5 869.2 973.4 867.8 974.7C851 990.1 826.9 996.5 805.9 985.7C804.2 984.7 802.7 987.3 804.4 988.2Z" fill="#161616"/>
<path d="M862.3 788.9C863.9 850.7 865.5 912.5 867.1 974.3C867.2 976.2 870.2 976.2 870.1 974.3C868.5 912.5 866.9 850.7 865.3 788.9C865.3 787 862.3 787 862.3 788.9Z" fill="#161616"/>
<path d="M828.7 993.5C831.1 1005.6 832.6 1017.8 833.2 1030.1C833.3 1032 836.3 1032 836.2 1030.1C835.6 1017.5 834.1 1005 831.6 992.7C831.2 990.8 828.3 991.6 828.7 993.5Z" fill="#161616"/>
<path d="M855.5 986C856.1 999.1 857.3 1012.1 859.1 1025.1C859.4 1027 862.3 1026.2 862 1024.3C860.2 1011.6 859 998.8 858.5 986C858.4 984.1 855.4 984.1 855.5 986Z" fill="#161616"/>
<path d="M860.6 1018.5C871.4 1017.1 882 1020.3 890.1 1027.6C891.5 1028.9 893.7 1026.8 892.2 1025.5C883.5 1017.7 872.2 1014 860.6 1015.5C858.7 1015.7 858.7 1018.7 860.6 1018.5Z" fill="#161616"/>
<path d="M833.2 1029C832.7 1035.3 833 1042.9 839.7 1045.8C842.3 1046.9 845.6 1047 848.4 1047.2C853.2 1047.6 858 1047.8 862.8 1047.6C874.3 1047 896.6 1042.4 893.3 1026.3C892.9 1024.4 890 1025.2 890.4 1027.1C893.3 1041.3 870.5 1044.4 861 1044.7C855.9 1044.9 850.8 1044.6 845.7 1044C836.7 1042.9 835.6 1037 836.2 1029.1C836.3 1027.1 833.3 1027.1 833.2 1029Z" fill="#161616"/>
<path opacity="0.11" d="M807 802C816.8 798.5 826.6 795 836.4 791.6C834.7 824.1 834.3 859.6 836 897.6C837.4 930 840.2 960.4 843.7 988.5C841.7 989.4 839.5 990.2 837.1 990.8C823.3 994.4 811 989.8 805 986.9C802.2 953.6 800.8 916.8 801.9 877C802.7 850.5 804.5 825.5 807 802Z" fill="#4C4C4C"/>
<path opacity="0.1" d="M806.2 804C806.6 821.5 807.7 844.2 810.1 870.5C812 891.4 814.1 907 814.7 911.9C817.6 933 822 960.4 829.4 992.4C821 990.5 812.6 988.5 804.3 986.6C802.8 954.5 802.1 920.5 802.8 884.8C803.2 856.7 804.4 829.7 806.2 804Z" fill="#4C4C4C"/>
<path d="M784.9 876.6C785.5 879.7 786.3 884.2 787.3 889.8C793.2 925.4 793.1 951 793.7 972.6C794.2 991 795.4 1017.3 798.8 1050C796.7 1050.9 793.5 1052.4 789.7 1054.4C780.3 1059.3 767.7 1065.9 755.9 1078.1C752.4 1081.7 747.5 1087.3 742.7 1095C758.6 1096.5 777.4 1097.2 798.5 1095.7C824.4 1093.8 846.8 1089.2 864.7 1084.2C859.3 1079.6 853.3 1075 846.8 1070.3C834.4 1061.6 822.5 1054.7 811.7 1049.3C809.3 1026 807.4 1001.5 806.3 976C804.6 936.6 804.8 899.5 806.3 865.1C799.1 869 792 872.8 784.9 876.6Z" fill="black"/>
<path d="M710.9 828C710.9 823.4 716.2 819.5 726.8 811.8C731.8 808.1 745.6 798.8 768.7 793.5C789 788.9 804.6 790.2 823.5 791.8C850.4 794.1 862.8 799.5 866.1 800.9C875.9 805.3 883.3 810.5 888.1 814.4C886.4 820.5 883 829.1 875.9 837C871 842.6 857.6 855.4 820.5 858.3C769 862.5 710.8 844.7 710.9 828Z" fill="white"/>
<path d="M713.9 822.2C712.6 825 711.4 828.1 710.5 831.7C707.1 844.6 709 855.9 710.8 862.8C716.2 865.3 723.9 868.4 733.4 871.2C762.6 879.9 786.4 878.7 805.7 877.6C831.1 876.2 847.5 875 866.5 865.1C877 859.6 884.8 853.2 889.8 848.5C889.5 837.6 889.1 826.6 888.8 815.7C880.5 821.2 871 826.4 860.4 830.6C798.4 855.4 737 832.4 713.9 822.2Z" fill="black"/>
<path d="M709.2 829C707.1 840.3 707.2 851.7 709.3 863C709.7 864.9 712.5 864.1 712.2 862.2C710.2 851.4 710.1 840.6 712.1 829.8C712.5 827.9 709.6 827.1 709.2 829Z" fill="#161616"/>
<path d="M710.2 863C723.7 871.7 740 873.9 755.6 876.2C772.4 878.6 789.3 880 806.3 878.6C835.4 876.2 871.3 873.4 891.2 849.1C892.4 847.6 890.3 845.5 889.1 847C879.7 858.5 866.2 865.1 852 868.8C836.6 872.8 820.3 874.6 804.4 875.7C787.7 876.9 771 875.4 754.5 873C739.8 870.8 724.4 868.7 711.7 860.4C710.1 859.4 708.6 862 710.2 863Z" fill="#161616"/>
<path d="M887 816.2C888.9 826.6 889.5 837 888.7 847.5C888.6 849.4 891.6 849.4 891.7 847.5C892.5 836.7 891.8 826 889.9 815.4C889.6 813.5 886.7 814.3 887 816.2Z" fill="#161616"/>
<path d="M712 829.3C727.9 801.9 763.5 793.9 792.9 792.2C810.3 791.2 827.8 792.6 844.8 796.6C852.9 798.5 861 800.8 868.8 803.9C876.2 806.8 883.4 810.7 887.1 818.1C888 819.8 890.6 818.3 889.7 816.6C882.6 802.6 863.1 798.1 849.2 794.6C830.9 790 811.8 788.2 793 789.3C762.6 791.1 726.1 799.5 709.6 827.9C708.4 829.4 711 830.9 712 829.3Z" fill="#161616"/>
<path d="M784.6 877.7C790.9 934.6 795.1 991.7 797.3 1048.9C797.4 1050.8 800.4 1050.8 800.3 1048.9C798.2 991.7 794 934.6 787.6 877.7C787.4 875.8 784.4 875.8 784.6 877.7Z" fill="#161616"/>
<path d="M803.6 877.7C803.8 935.2 805.7 992.6 809.4 1050C809.5 1051.9 812.5 1051.9 812.4 1050C808.7 992.6 806.8 935.2 806.6 877.7C806.5 875.8 803.5 875.8 803.6 877.7Z" fill="#161616"/>
<path d="M797.1 1048C774.7 1058.3 755.5 1074.2 740.9 1094.1C740.4 1094.8 740.9 1096.2 741.8 1096.3C762.5 1099.7 783.4 1098 804.1 1095.7C824.3 1093.5 844.7 1091.3 864.2 1085.5C865.2 1085.2 865.8 1083.7 864.9 1083C848.7 1069.4 831 1058 812 1048.8C810.3 1048 808.7 1050.6 810.5 1051.4C829.3 1060.4 846.8 1071.7 862.8 1085.1C863 1084.3 863.2 1083.4 863.5 1082.6C844.2 1088.4 824.1 1090.5 804.2 1092.7C783.8 1095 763.1 1096.7 742.7 1093.4C743 1094.1 743.3 1094.9 743.6 1095.6C757.8 1076.1 776.8 1060.7 798.7 1050.6C800.3 1049.8 798.8 1047.2 797.1 1048Z" fill="#161616"/>
<path d="M694.6 783.1C696.9 792.2 699.3 801.3 701.6 810.4C689.2 806.4 678.5 804.3 670.7 803.1C665.1 802.3 641.4 798.7 639.8 803.7C639.2 805.6 642 808.5 642.3 808.8C644.6 811.1 647.4 811.3 649.9 811.9C655 813 656.7 814.9 662 817.5C670 821.5 687.3 827.8 706.7 831.3C713.3 832.5 721.9 833.7 732.3 834.1C728.2 816.2 724 798.3 719.9 780.4C711.5 781.2 703 782.1 694.6 783.1Z" fill="black"/>
<path d="M690.7 532.6C686.2 534.4 682.7 538 677.1 548.9C668.1 566.3 665.3 578.7 665.3 578.7C656.9 616 652.8 634.7 651.3 649.2C646.7 695.2 654.3 697.2 654 745.5C654 749.1 653.9 756.9 658.5 764.5C665.8 776.4 679.9 779.8 683.8 780.8C695.3 783.6 706.2 781.6 715.5 779.9C718.1 779.4 720.3 778.9 721.8 778.5C729 784.2 735.6 788.1 740.3 790.7C749.4 795.6 757.3 799.9 768.3 801.1C775.1 801.9 781.7 801.3 784.6 801.1C789.6 800.7 793.7 799.9 796.8 799.3C801.5 800.9 808.7 802.7 817.6 802.9C823.2 803 841.6 803.1 857.8 791.1C872.3 780.4 877.3 766 880.9 755.4C884.3 745.2 897.3 706.5 877.7 685.8C860.7 667.8 828.4 673 802.6 677.2C790.2 679.2 780 682.3 772.8 684.9C760.9 654.1 752.1 629.8 746.1 613C740.4 597.1 732.1 582.1 727.1 566C722.6 551.6 720.2 540.1 709.9 534.3C709.2 533.9 699.8 528.9 690.7 532.6Z" fill="white"/>
<path d="M794.8 801.7C821.3 807.8 851.7 803.8 869.9 781.6C879 770.5 881.9 756.7 884.4 742.9C886.9 728.6 888.3 714 883.7 700C883.1 698.2 880.2 699 880.8 700.8C885.3 714.3 884 728.4 881.5 742.1C879.2 755.3 876.5 768.8 867.8 779.5C850.4 800.9 821.1 804.6 795.6 798.8C793.7 798.3 792.9 801.2 794.8 801.7Z" fill="#161616"/>
<path d="M735.1 585C733.7 571.6 730.2 557.8 723.5 546C718.5 537.3 710.5 529 699.7 529.5C688.3 530 679.9 539.2 675.2 548.7C668.8 561.3 664.8 575.6 661.1 589.1C653.5 616.8 649.2 645.5 648.3 674.2C647.8 689.4 648.2 704.7 649.5 719.9C650.7 733.6 651.7 748.5 655.6 761.7C658.9 773 674 779.7 684.5 782.4C697.1 785.6 710.2 784.5 722 779.3C723.8 778.5 722.2 775.9 720.5 776.7C709.9 781.4 698 782.4 686.7 779.9C676.8 777.7 661.7 771.6 658.5 761C656.8 755.3 656.2 749.1 655.3 743.2C654.2 736.1 653.4 729 652.7 721.8C651.6 709.7 651 697.5 651.1 685.3C651.2 659.8 653.9 634.4 659.3 609.5C661.9 597.6 665 585.8 668.8 574.2C672.6 562.6 676.2 548.9 684.9 539.9C689.8 534.9 696.8 531.4 703.9 532.7C710.7 534 715.9 539.3 719.5 544.9C727.1 556.5 730.8 571.2 732.3 584.9C732.3 586.9 735.3 587 735.1 585Z" fill="#161616"/>
<path d="M682.9 614.8C679.5 651.3 683.3 688.4 694.1 723.5C699.3 740.3 705.4 758.9 716 773.2C725.4 785.9 740.1 794.3 755 799C772.2 804.5 791.1 804.8 807.4 796.5C809.1 795.6 807.6 793 805.9 793.9C791 801.5 773.9 801.5 758.2 796.9C742.1 792.2 726 783 716.6 768.8C707.4 754.8 701.6 737.9 696.8 721.9C691.8 705.6 688.3 688.8 686.4 671.8C684.3 652.9 684.2 633.8 685.9 614.9C686.1 612.9 683.1 612.9 682.9 614.8Z" fill="#161616"/>
<path d="M676.4 604.2C677 617.3 678.9 630.2 682.2 642.9C682.7 644.8 685.6 644 685.1 642.1C681.8 629.7 679.9 617 679.4 604.2C679.3 602.3 676.3 602.3 676.4 604.2Z" fill="#161616"/>
<path d="M733 585.2C751.9 630.3 768.6 676.4 783.1 723.2C783.7 725 786.6 724.3 786 722.4C771.6 675.6 754.9 629.6 735.9 584.4C735.1 582.7 732.2 583.5 733 585.2Z" fill="#161616"/>
<path d="M692.8 784.5C695.4 793.5 698 802.5 700.6 811.6C701.1 813.5 704 812.7 703.5 810.8C700.9 801.8 698.3 792.8 695.7 783.7C695.1 781.9 692.2 782.7 692.8 784.5Z" fill="#161616"/>
<path d="M701.8 809.8C681.8 801.9 660.3 799.2 638.9 802C638.1 802.1 637 802.9 637.5 803.9C640.1 810.3 647.4 812.2 653.2 814.7C661.5 818.3 669.8 821.8 678.3 824.8C695.3 830.9 713 835.1 731.1 834.6C733 834.6 733 831.6 731.1 831.6C715.1 832 699.4 828.8 684.3 823.7C677 821.3 669.9 818.5 662.8 815.5C659 813.9 655.1 812.3 651.3 810.6C647.4 808.9 642.1 807.3 640.3 803C639.8 803.6 639.3 804.3 638.9 804.9C660 802.1 681.2 804.8 701 812.6C702.8 813.4 703.5 810.5 701.8 809.8Z" fill="#161616"/>
<path d="M718 779.1C720.1 797.6 728.9 814.6 730.2 833.2C730.3 835.1 733.3 835.1 733.2 833.2C731.9 814.6 723.1 797.6 721 779.1C720.8 777.2 717.8 777.2 718 779.1Z" fill="#161616"/>
<path opacity="0.1" d="M688.6 780C685.2 771.3 680.5 758.3 676 742.3C674.1 735.4 661.9 690.3 664.5 631.9C665.2 616.6 666.9 599.7 679.1 587.4C683.8 582.7 689.1 577.4 693.7 578.5C712.9 583 678.4 685 726.7 740.1C751.5 768.4 787.3 772 793.1 772.5C844.5 777.1 879.2 740.2 883.6 735.4C883.9 741.5 883.5 751 879.4 761.6C872 780.8 857.6 790.7 852.2 794C827.3 809.2 801.2 802.1 796.8 800.8C789.6 801.9 780 802.5 769.1 800.8C744.5 797 727.9 784 720.5 777.3C717.4 779 711.5 781.6 703.8 782C697.1 782.5 691.8 781.1 688.6 780Z" fill="#4C4C4C"/>
<path opacity="0.13" d="M680.2 603.2C681.5 603.1 682 614.9 688.6 653.4C696.3 698.9 700.2 721.6 705.9 734.5C713.1 750.9 731.7 780.3 787.5 802C779.5 802.3 766.2 801.9 750.9 796.2C736.5 790.9 726.4 783.1 720.6 777.9C714.3 779.3 708 780.7 701.8 782.1C698 770.7 693.3 755.2 689.2 736.6C673.6 666.5 677.3 603.4 680.2 603.2Z" fill="#4C4C4C"/>
<path d="M548.1 562.6C547.6 564.7 550.7 567.5 553.2 568.7C557.3 570.7 561.2 569 561.8 568.7C561.8 568.7 571 567.7 579.5 572.7C582.1 574.2 584.5 577.4 589.1 583.8C597.6 595.4 598.7 599.3 604.3 603C608.2 605.6 612 606.6 614.4 607C616.8 609.7 620.5 613.9 625 619.1C641.1 637.9 642.2 641.3 649.8 647.9C658 655.1 667.9 663.9 679.6 662.6C685.8 661.9 690.8 658.5 698.8 650.5C715.4 633.8 726.9 615.4 737.2 594.4C748.3 571.8 750.8 560.8 751.9 555.5C752.5 552.2 758.4 522.4 749.9 518.6C746.6 517.1 742.3 520 735.8 525.2C712.3 544 698.4 563.7 697.4 565.1C690 575.8 680.7 590.6 671.6 609.6C657.3 602.2 643 594.8 628.7 587.4C627.8 585.5 626.7 582.5 626.7 578.8C626.7 572.7 629.8 570.4 631.8 563.6C633.9 556.6 634.2 547 630.8 545.4C628.4 544.3 623.8 547 621.7 550.5C619.5 554.1 620.8 557.3 618.7 558.6C616 560.3 611.1 556.9 610.6 556.6C605.2 552.8 605.7 548.1 601.5 540.4C597 532.1 591 527.5 587.4 524.7C582.4 520.9 576.8 516.6 571.2 518.1C570.3 518.3 566.6 519.4 565.3 522.7C564.7 524.3 564.9 525.8 565.1 526.7C564.7 526.4 561.1 524.2 557.1 525.7C554.3 526.7 552 529.3 551.5 532.3C551.3 533.6 551.5 534.7 551.7 535.5C551.2 535.3 546.9 534.2 543.9 536.8C543.4 537.2 541.7 538.7 541.7 540.8C541.7 542.5 542.9 543.9 545 545.6C549.5 549.3 552.9 550.2 557.1 552.5C559.2 553.6 562 555.5 565.2 558.4C559.7 558.4 548.9 558.9 548.1 562.6Z" fill="white"/>
<path d="M672.8 610.1C690.3 576 709.6 539.5 745.5 521.6C747.2 520.7 745.7 518.2 744 519C707.7 537 688 574 670.3 608.5C669.3 610.3 671.9 611.8 672.8 610.1Z" fill="#161616"/>
<path d="M628.7 589.3C644.1 599.6 663.3 603.9 676.5 617.4C677.9 618.8 680 616.7 678.6 615.3C665.2 601.6 645.8 597.2 630.2 586.7C628.6 585.6 627.1 588.2 628.7 589.3Z" fill="#161616"/>
<path d="M616.2 609.1C623.5 621.7 632.6 633.2 643.1 643.2C652.5 652.1 664.8 663.5 678.6 663.8C691.2 664.1 699.8 653.6 706.5 644.3C716.5 630.4 725.7 616 734.3 601.2C743.1 586.1 752.4 570.1 752.8 552.2C752.8 550.3 749.8 550.3 749.8 552.2C749.4 571.4 738.4 588.6 728.8 604.6C719.6 620.1 710.1 636.6 698.2 650.1C692.7 656.4 685.6 661.6 676.9 660.7C667.2 659.7 658.6 652.7 651.4 646.6C638.3 635.6 627.4 622.3 618.7 607.6C617.8 605.9 615.2 607.4 616.2 609.1Z" fill="#161616"/>
<path d="M618.9 607.2C614.9 605.3 610.3 604.7 606.4 602.5C602.4 600.2 599.6 596.3 597 592.5C592.4 585.7 588.2 578.6 581.7 573.4C578.7 571 575.2 569 571.4 568C567.2 566.8 563.4 567.5 559.1 567.7C556.4 567.8 550.8 567.9 550.6 563.8C550.3 559.8 555.9 560.4 558.2 560.3C563.3 560 568.2 560.3 572.9 562.3C574.7 563 575.5 560.1 573.7 559.4C568.1 557.1 562.4 557 556.4 557.4C553.5 557.6 549.7 557.6 548.1 560.5C546.7 563 547.8 566.2 549.7 568.2C552.9 571.6 557.7 570.9 561.9 570.5C576.9 569 585.8 581 593.2 592.3C595.8 596.3 598.5 600.3 602.2 603.3C606.7 606.9 612.3 607.4 617.3 609.9C619.1 610.6 620.7 608 618.9 607.2Z" fill="#161616"/>
<path d="M630.9 587.9C625.5 581.6 630.5 571.8 632.4 565C633.8 560.1 635.8 553.3 633.2 548.4C631.7 545.5 628.4 543.7 625.2 544.9C623.4 545.6 622 547 621 548.6C619.6 550.9 619.2 557.2 616.4 557.9C614.5 558.3 615.3 561.2 617.2 560.8C620.6 560 621.3 556.6 622.3 553.7C622.8 552.2 623.8 548.3 625.7 548C627.5 549 629.3 550 631.1 551C631.2 551.9 631.3 552.7 631.5 553.6C631.7 557.2 630.6 560.9 629.7 564.3C627.3 572.4 622.6 582.6 628.9 590.1C630 591.5 632.1 589.3 630.9 587.9Z" fill="#161616"/>
<path d="M549.7 547C548.2 546.2 546.6 545.3 545.4 544.2C543.7 543.3 543.4 542 544.5 540.4C544.4 538.1 545.6 537.3 548 537.7C552.5 537.4 556.4 539.6 560.3 541.4C567 544.6 573.4 548 579 552.9C580.4 554.2 582.6 552.1 581.1 550.8C576.2 546.5 570.7 543.2 564.9 540.3C559.4 537.5 553.5 534 547.1 534.7C543.8 535.1 539.9 536.3 540 540.2C540.1 544.7 544.7 547.5 548.1 549.5C549.8 550.5 551.3 547.9 549.7 547Z" fill="#161616"/>
<path d="M553.6 534.9C548.3 530.9 555.2 528.2 557.3 527.8C559.3 527.5 561.3 528 563.2 528.6C566.4 529.7 569.3 531.6 572.1 533.5C577.5 537.2 582.4 541.5 587 546.2C588.4 547.6 590.5 545.5 589.1 544.1C581.6 536.5 570.8 525.7 559.5 524.7C552.4 524.1 544.7 531.8 552.1 537.4C553.6 538.7 555.1 536.1 553.6 534.9Z" fill="#161616"/>
<path d="M566.6 525.9C563 521.4 571.1 519.8 573.5 520.2C574.5 520.4 575.4 520.7 576.4 521C579.6 522.1 582.5 523.9 585.1 526C589.8 529.7 593.7 534.4 597.3 539.2C598.5 540.7 601.1 539.2 599.9 537.7C593.6 529.4 586.2 520.7 575.7 517.7C572.2 516.7 567.6 516.4 564.8 519.3C562.3 521.9 562.3 525.4 564.5 528C565.7 529.5 567.8 527.4 566.6 525.9Z" fill="#161616"/>
<path d="M596.3 537.1C600 543.4 603.3 550.1 607.5 556.1C610.1 559.8 613.9 562.5 618.5 560.6C620.3 559.9 619.5 557 617.7 557.7C611.6 560.1 608.4 551.7 606 547.6C603.6 543.6 601.3 539.5 598.9 535.5C598 533.9 595.4 535.4 596.3 537.1Z" fill="#161616"/>
<path d="M547.2 548.4C552.8 552.1 558.5 555.7 564.1 559.4C565.7 560.5 567.2 557.9 565.6 556.8C560 553.1 554.3 549.5 548.7 545.8C547.1 544.8 545.6 547.4 547.2 548.4Z" fill="#161616"/>
<path opacity="0.12" d="M544.2 538.5C548.2 536.6 554.3 541.9 558.1 545C576.6 560.1 577.5 554.8 588.1 565.7C598.9 576.7 598.6 582.7 609.4 589.3C614.5 592.4 619.3 594 622.6 594.8C624.5 597.5 627.3 601.5 631 606.1C644.3 622.8 651.2 631.5 662 635.5C662.9 635.8 680.2 642 694.6 633.6C706.1 626.9 706.1 616.2 719.5 581.3C736.4 537.3 743.2 531.8 747.6 532.2C750.2 532.4 752.6 534.8 753.7 536.7C756 540.6 754.2 544.8 751.8 554.5C749.5 563.7 750 564.1 748.6 569.7C744.7 584.5 737.7 592.7 717.9 626.2C714.7 631.5 710.4 638.9 703 647.5C696.7 654.9 692.7 659.3 686.5 661.4C676.1 664.9 665.9 659.5 661 656.9C654.4 653.4 649.7 649.1 642.3 640.4C635.4 632.4 626.6 621.1 617.4 606.5C615.3 606.5 612 606.1 608.4 604.6C605.3 603.2 601.3 600.7 591.6 586.8C584.7 576.9 584.8 575.5 581.3 573.2C575.8 569.6 569 569 565.5 568.7C557.4 567.9 553.1 569.6 551 566.8C549.7 565 549.6 562 551 560.3C554.4 556.1 566 561.3 566.5 560C566.8 559.1 562.2 556.7 554.2 551.9C544.7 546.2 541.7 544 541.9 541.6C542 540.1 543.1 539 544.2 538.5Z" fill="#4C4C4C"/>
<path d="M872.5 500.4C867.1 501.5 865 511.6 862.9 521.1C860.3 533.3 860.1 543.6 860.4 551.4C861.1 572.9 865.7 593.4 871.5 605.5C874.6 612 876.5 612.8 880.1 621.2C881.3 624 882.2 626.4 884.6 628.3C889.2 631.8 895.2 630.5 895.7 630.3C901.9 628.8 905.2 623.4 906.8 620.7C911.3 613 911.4 605.1 910.3 591.4C908.7 570.7 907.9 560.4 904.7 549.5C901.9 539.8 897.2 527.6 888.5 515.1C883.3 507.3 877.7 499.4 872.5 500.4Z" fill="white"/>
<path d="M872.6 503.1C878 502.5 881.9 509.1 884.7 513C887.2 516.5 889.5 520.2 891.7 523.9C896 531.6 899.5 539.7 902.1 548.1C907.3 564.7 909.5 582.1 909.3 599.5C909.2 608.5 909.3 620.3 901.7 626.7C898.2 629.6 892.9 631.4 888.6 629.3C884.1 627.1 881.5 621.1 879.2 617C870 600.4 864.2 582 862.2 563.1C860 542.6 861.5 520.1 872.8 502.4C873.8 500.8 871.2 499.3 870.2 500.9C858.6 519.1 857 542.2 859.2 563.1C861.4 584.7 868.5 606.2 880.2 624.5C884.5 631.2 890.5 635.2 898.5 632.1C906.8 628.9 910.5 620.6 911.6 612.3C914.4 592.7 911.7 571 906.4 552C903.3 540.9 898.9 530.2 893.1 520.2C890.3 515.4 887.1 510.8 883.7 506.5C880.8 502.9 877.6 499.5 872.7 500C870.7 500.3 870.7 503.3 872.6 503.1Z" fill="#161616"/>
<path opacity="0.11" d="M875.7 503C873.1 515.7 871.8 530.4 873.4 546.6C875 562.1 878.8 573.5 883.7 588.3C887.6 600 893 613.8 900.5 629C898.4 630.3 895.1 631.8 891.5 631.3C884.2 630.2 879.9 621.7 877 615.1C866.4 591.5 861.1 579.7 860.2 559.5C858.9 531.8 866.3 501.1 872.8 501C874 501 875 502.1 875.7 503Z" fill="#4C4C4C"/>
<path d="M735.1 520.1C734.6 524.4 734.1 530.5 733.6 537.8C733.2 543.3 732.2 559.4 732.6 574.7C733.5 604.9 740.1 628.9 744.2 643.4C747.9 656.4 751.8 667.1 754.8 674.7C755.1 677.6 755.8 681.7 757.3 686.3C764.5 707.9 783.1 718.6 787.6 721.2C810.1 733.8 832.5 729.2 839.1 727.8C845.7 726.3 867 721.4 881 702.5C885.6 696.4 889.7 688.4 893.6 667.1C895.4 657.2 899.6 631.2 896.6 586.8C893.5 541.6 886.2 524.6 881.9 516.1C878.1 508.4 874.1 502.4 871.3 498.4C848 488.8 828.6 488.6 817.7 489.3C799.4 490.5 785.4 496 771.7 501.4C756.2 507.6 743.8 514.6 735.1 520.1Z" fill="#736766"/>
<path d="M733 522.8C725.6 575.6 733.5 629.7 755.6 678.2C756.4 680 759 678.4 758.2 676.7C736.4 629 728.6 575.5 735.9 523.6C736.1 521.7 733.2 520.9 733 522.8Z" fill="#161616"/>
<path d="M751.5 670.8C755.1 695.9 773.2 717.6 797 726.3C822.4 735.6 852.9 730.1 873.2 712.3C883.8 703.1 891.1 690.7 892.5 676.6C892.7 674.7 889.7 674.7 889.5 676.6C886.2 710.3 848.9 729.4 818.1 727.5C786.3 725.6 758.9 701.7 754.4 669.9C754.1 668.1 751.2 668.9 751.5 670.8Z" fill="#161616"/>
<path d="M734.8 522.8C774.5 497.8 824.2 480.1 869.9 499.8C871.7 500.6 873.2 498 871.4 497.2C824.6 477 774 494.5 733.2 520.2C731.7 521.3 733.2 523.9 734.8 522.8Z" fill="#161616"/>
<path d="M869.9 499.5C880.7 509.4 884.9 526 888 539.9C891.4 555.1 893.4 570.7 894.7 586.3C897.3 617.2 896.4 648.4 890.2 678.9C889.8 680.8 892.7 681.6 893.1 679.7C899.7 647.7 900.5 615 897.4 582.5C895.9 566.8 893.9 550.9 890.1 535.5C886.8 522.3 882.4 506.9 872.1 497.4C870.6 496.1 868.5 498.2 869.9 499.5Z" fill="#161616"/>
<path d="M769.2 687.6C781.8 699.1 797.3 706.3 814.2 708.4C816.1 708.6 816.1 705.6 814.2 705.4C798.1 703.4 783.2 696.4 771.3 685.4C769.9 684.2 767.7 686.3 769.2 687.6Z" fill="#161616"/>
<path opacity="0.15" d="M814.5 490.5C818.2 496.3 822 502.2 825.7 508C833.4 526.7 842.9 554 848.8 588.2C851.7 605.3 854.5 621.3 853.5 641.3C852.6 659.3 848 691.9 824.8 729.6C829.9 729.5 837.3 728.9 845.7 726.2C849.2 725.1 875 716.4 887.5 691.9C892.7 681.7 893.6 672.6 894.4 661.6C898.6 602.6 894.7 564.5 892.5 551.4C890.7 540.6 888.1 528.1 881 513.9C877.3 506.6 873.4 501 870.7 497.4C863.8 494.4 853.5 490.9 840.7 489.6C830.2 488.6 821.2 489.4 814.5 490.5Z" fill="#4C4C4C"/>
<path opacity="0.11" d="M882.9 522.1C879.3 522.3 877.5 544 876.3 558.6C873.6 592 875.6 616.1 876 624.8C877.1 648.2 871.6 682 842 726.5C846.7 725.3 853.7 723 861.4 718.7C868 715 877.4 709.7 884.2 698.7C886.5 694.9 890.1 688 891.4 678.1C894.6 659.7 897.8 633.3 896.7 601.6C895.2 564 887.9 521.8 882.9 522.1Z" fill="#4C4C4C"/>
<path d="M738.2 596.6C743.8 678.1 739.1 759.8 734.4 841.2C734.2 845.1 740.2 845 740.4 841.2C745.2 759.8 749.8 678.1 744.2 596.6C743.9 592.7 737.9 592.7 738.2 596.6Z" fill="black"/>
<path d="M740.3 592.9C769.8 594.1 802.1 594 836.9 591.8C863.2 590.2 887.9 587.5 910.8 584.2C910.3 609.6 909.7 634.9 909.2 660.3C883.9 665.3 854.6 669.4 821.8 671.1C792.8 672.6 766.3 671.8 743 670C742.1 644.3 741.2 618.6 740.3 592.9Z" fill="black" stroke="black" stroke-width="2" stroke-miterlimit="10"/>
<path d="M906.2 601C898.8 677.8 891.5 754.6 884.1 831.4C883.7 835.2 889.7 835.2 890.1 831.4C897.5 754.6 904.8 677.8 912.2 601C912.6 597.2 906.6 597.2 906.2 601Z" fill="black"/>
<path d="M725.8 432.8C725.1 434.8 725.8 438.7 726.6 443.7C726.8 445.1 727.4 447.9 728.8 452.6C731.3 460.8 734.2 466.8 734.9 468.2C742 482.6 750.8 491.9 753.3 494.4C757.5 498.6 761.4 501.8 764.2 503.9C772.9 500.4 781.6 496.8 790.4 493.3C793.5 491 798.3 486.8 801.5 479.9C807.3 467.4 804.2 453.7 799.6 445.7C783.5 417.6 729.3 423 725.8 432.8Z" fill="white"/>
<path d="M724.2 440.9C727.2 454.4 732.2 467.4 739.4 479.3C742.8 484.9 746.7 490.2 750.9 495.2C754.6 499.6 758.5 503.9 764.4 505.3C766.3 505.7 767.1 502.8 765.2 502.4C759 501 754.8 495.3 750.9 490.5C746.9 485.6 743.4 480.3 740.3 474.9C734.1 464 729.7 452.3 727.1 440.1C726.7 438.3 723.8 439.1 724.2 440.9Z" fill="#161616"/>
<path d="M746.8 465.5C746.4 456.8 756.8 459.5 760.2 464C764.2 469.2 763.1 480.4 754.3 478.9C752.4 478.6 751.6 481.5 753.5 481.8C764.8 483.7 768.6 469.9 762.6 462.1C757.4 455.3 743.2 453.8 743.8 465.4C743.9 467.4 746.9 467.4 746.8 465.5Z" fill="#161616"/>
<path d="M724.7 438.7C723.4 434.1 721.2 426.7 725.1 419.4C728.5 413.2 734.4 410.6 736.8 409.8C736.7 408.4 736.4 400.6 742.4 394.1C748.5 387.6 756.3 387.3 757.7 387.3C760.2 385.4 763.8 383 768.6 381.3C770.3 380.7 778.2 377.9 787.5 379.3C800.3 381.2 802.5 388.9 816.8 395C821.6 397 829.2 399.5 839.7 399.8C837.2 402.7 834.6 405.7 832.1 408.6C834 410.7 836.6 414 838.5 418.6C839.5 420.9 841.3 426.2 840.9 436.3C840.5 446.1 838.1 454 836.1 460.8C832.5 472.6 830.4 476.1 832.5 480.9C834.8 486.3 840.3 487.8 839.6 490.1C838.8 492.6 831.8 492.9 826.9 492.3C819.6 491.4 815 488.2 814.2 489.3C813.2 490.6 820.1 495.2 819 498.2C817.7 502.1 804.6 501.5 795.2 499.3C792 498.6 786.4 496.9 779.8 493.2C771.4 488.5 765.8 482.7 762.5 478.7C765 473.1 764.7 466.9 761.3 462.6C761 462.2 756 456.1 750 457.8C746.7 458.8 744.9 461.7 744.4 462.6C740.1 460.2 728.8 452.7 724.7 438.7Z" fill="black"/>
<path opacity="0.24" d="M737 410.5C739.1 416.8 752.8 415.6 763 419C770.3 421.4 780 427.7 788.7 445.1C786.3 437.3 775.2 405.1 748.8 397.9C746.3 397.2 743.6 396.7 740.5 396.5C739.5 397.7 737.5 400.5 736.9 404.4C736.9 404.9 736.3 408.3 737 410.5Z" fill="#4C4C4C"/>
<path opacity="0.17" d="M758.3 386.7C760.1 385.3 762.7 383.5 766 382.1C768.6 381 771 380.4 772.9 380C778.1 384.5 786 390.3 796.7 394.6C814.8 401.9 831 401 839.3 399.9C838 402.3 835.7 405.7 831.9 408.4C818 418.3 797.2 409.8 787.3 405.8C780.4 403 769.4 397.5 758.3 386.7Z" fill="#4C4C4C"/>
<path opacity="0.14" d="M807.5 455.5C805.9 456 808 467.3 808.7 470.7C810.3 478.5 812.8 484.8 814.9 489C818.1 490 821.3 491.1 824.4 492.1C812.6 461.4 808.8 455.1 807.5 455.5Z" fill="#4C4C4C"/>
<path opacity="0.12" d="M760.2 467.6C760.5 470.1 760.7 472.4 759.4 474.3C757.8 476.6 755.3 476.2 753.1 479.5C752.3 480.7 752.3 481.3 752.5 481.6C753 482.5 755.1 482.1 756.1 482.1C761.3 482.3 764.4 487.6 768 490.7C770.9 493.3 775.9 496 784.9 496.2C780.5 493.8 775.4 490.6 770.2 486.3C767.3 483.9 764.7 481.4 762.5 479.1C763.5 476.9 765.3 472 763.4 467C762 463.2 758.8 460.5 758.4 460.8C757.9 461.1 759.7 463.4 760.2 467.6Z" fill="#4C4C4C"/>
</svg>
