<svg width="17" height="13" viewBox="0 0 17 13" fill="none" xmlns="http://www.w3.org/2000/svg">
<path d="M4.65292 1.768V13H3.08692V1.768H0.314922V0.399999H7.42492V1.768H4.65292ZM15.7554 3.946C15.7554 4.882 15.6174 5.65 15.3414 6.25C15.0654 6.85 14.6034 7.276 13.9554 7.528L16.4214 13H14.6934L12.3894 7.78H10.7874V13H9.22141V0.399999C9.52141 0.375999 9.83941 0.351999 10.1754 0.327999C10.4634 0.303999 10.7874 0.291999 11.1474 0.291999C11.5194 0.28 11.8914 0.274 12.2634 0.274C12.9474 0.274 13.5114 0.364 13.9554 0.543999C14.4114 0.711999 14.7714 0.957999 15.0354 1.282C15.2994 1.606 15.4854 1.996 15.5934 2.452C15.7014 2.896 15.7554 3.394 15.7554 3.946ZM14.1534 4.072C14.1534 3.196 14.0334 2.56 13.7934 2.164C13.5534 1.768 13.1154 1.57 12.4794 1.57C11.9754 1.57 11.5674 1.588 11.2554 1.624C11.0754 1.648 10.9194 1.666 10.7874 1.678V6.466H12.4794C12.7314 6.466 12.9594 6.436 13.1634 6.376C13.3674 6.304 13.5414 6.184 13.6854 6.016C13.8414 5.836 13.9554 5.59 14.0274 5.278C14.1114 4.966 14.1534 4.564 14.1534 4.072Z" fill="#716767"/>
</svg>
